<?xml version="1.0" encoding="UTF-8"?>
<svg id="SVGDoc" width="685" height="95" xmlns="http://www.w3.org/2000/svg" version="1.1" xmlns:xlink="http://www.w3.org/1999/xlink" xmlns:avocode="https://avocode.com/" viewBox="0 0 685 95"><defs></defs><desc>Generated with Avocode.</desc><g><g><title>&lt;Path&gt;</title><path d="M80.8423,50.2411c0,18.725 -15.186,33.912 -33.912,33.912c-18.726,0 -33.912,-15.186 -33.912,-33.912c0,-18.726 15.186,-33.913 33.912,-33.913c18.726,0 33.912,15.187 33.912,33.913zM46.9473,84.1531h-0.035M41.5043,42.7801h38.513" fill="#005896" fill-opacity="1"></path></g><g><title>&lt;Path&gt;</title><path d="MNaN,NaNcNaN,NaN NaN,NaN NaN,NaNcNaN,NaN NaN,NaN NaN,NaNcNaN,NaN NaN,NaN NaN,NaNcNaN,NaN NaN,NaN NaN,NaNcNaN,NaN NaN,NaN NaN,NaNcNaN,NaN NaN,NaN NaN,NaNcNaN,NaN NaN,NaN NaN,NaNcNaN,NaN NaN,NaN NaN,NaNcNaN,NaN NaN,NaN NaN,NaNz" fill="#005896" fill-opacity="1"></path></g><g><title>&lt;Path&gt;</title><path d="MNaN,NaNcNaN,NaN NaN,NaN NaN,NaNcNaN,NaN NaN,NaN NaN,NaNcNaN,NaN NaN,NaN NaN,NaNcNaN,NaN NaN,NaN NaN,NaNcNaN,NaN NaN,NaN NaN,NaNcNaN,NaN NaN,NaN NaN,NaNcNaN,NaN NaN,NaN NaN,NaNcNaN,NaN NaN,NaN NaN,NaNcNaN,NaN NaN,NaN NaN,NaNz" fill="#005896" fill-opacity="1"></path></g><g><title>&lt;Path&gt;</title><path d="MNaN,NaNcNaN,NaN NaN,NaN NaN,NaNcNaN,NaN NaN,NaN NaN,NaNcNaN,NaN NaN,NaN NaN,NaNcNaN,NaN NaN,NaN NaN,NaNcNaN,NaN NaN,NaN NaN,NaNcNaN,NaN NaN,NaN NaN,NaNcNaN,NaN NaN,NaN NaN,NaNcNaN,NaN NaN,NaN NaN,NaNz" fill="#005997" fill-opacity="1"></path></g><g><title>&lt;Path&gt;</title><path d="MNaN,NaNcNaN,NaN NaN,NaN NaN,NaNcNaN,NaN NaN,NaN NaN,NaNcNaN,NaN NaN,NaN NaN,NaNcNaN,NaN NaN,NaN NaN,NaNcNaN,NaN NaN,NaN NaN,NaNcNaN,NaN NaN,NaN NaN,NaNcNaN,NaN NaN,NaN NaN,NaNcNaN,NaN NaN,NaN NaN,NaNz" fill="#005b98" fill-opacity="1"></path></g><g><title>&lt;Path&gt;</title><path d="MNaN,NaNcNaN,NaN NaN,NaN NaN,NaNcNaN,NaN NaN,NaN NaN,NaNcNaN,NaN NaN,NaN NaN,NaNcNaN,NaN NaN,NaN NaN,NaNcNaN,NaN NaN,NaN NaN,NaNcNaN,NaN NaN,NaN NaN,NaNcNaN,NaN NaN,NaN NaN,NaNcNaN,NaN NaN,NaN NaN,NaNz" fill="#005c99" fill-opacity="1"></path></g><g><title>&lt;Path&gt;</title><path d="MNaN,NaNcNaN,NaN NaN,NaN NaN,NaNcNaN,NaN NaN,NaN NaN,NaNcNaN,NaN NaN,NaN NaN,NaNcNaN,NaN NaN,NaN NaN,NaNcNaN,NaN NaN,NaN NaN,NaNcNaN,NaN NaN,NaN NaN,NaNcNaN,NaN NaN,NaN NaN,NaNcNaN,NaN NaN,NaN NaN,NaNcNaN,NaN NaN,NaN NaN,NaNz" fill="#005c99" fill-opacity="1"></path></g><g><title>&lt;Path&gt;</title><path d="MNaN,NaNcNaN,NaN NaN,NaN NaN,NaNcNaN,NaN NaN,NaN NaN,NaNcNaN,NaN NaN,NaN NaN,NaNcNaN,NaN NaN,NaN NaN,NaNcNaN,NaN NaN,NaN NaN,NaNcNaN,NaN NaN,NaN NaN,NaNcNaN,NaN NaN,NaN NaN,NaNcNaN,NaN NaN,NaN NaN,NaNcNaN,NaN NaN,NaN NaN,NaNz" fill="#005d9a" fill-opacity="1"></path></g><g><title>&lt;Path&gt;</title><path d="MNaN,NaNcNaN,NaN NaN,NaN NaN,NaNcNaN,NaN NaN,NaN NaN,NaNcNaN,NaN NaN,NaN NaN,NaNcNaN,NaN NaN,NaN NaN,NaNcNaN,NaN NaN,NaN NaN,NaNcNaN,NaN NaN,NaN NaN,NaNcNaN,NaN NaN,NaN NaN,NaNcNaN,NaN NaN,NaN NaN,NaNz" fill="#005f9b" fill-opacity="1"></path></g><g><title>&lt;Path&gt;</title><path d="MNaN,NaNcNaN,NaN NaN,NaN NaN,NaNcNaN,NaN NaN,NaN NaN,NaNcNaN,NaN NaN,NaN NaN,NaNcNaN,NaN NaN,NaN NaN,NaNcNaN,NaN NaN,NaN NaN,NaNcNaN,NaN NaN,NaN NaN,NaNcNaN,NaN NaN,NaN NaN,NaNcNaN,NaN NaN,NaN NaN,NaNz" fill="#00609c" fill-opacity="1"></path></g><g><title>&lt;Path&gt;</title><path d="MNaN,NaNcNaN,NaN NaN,NaN NaN,NaNcNaN,NaN NaN,NaN NaN,NaNcNaN,NaN NaN,NaN NaN,NaNcNaN,NaN NaN,NaN NaN,NaNcNaN,NaN NaN,NaN NaN,NaNcNaN,NaN NaN,NaN NaN,NaNcNaN,NaN NaN,NaN NaN,NaNcNaN,NaN NaN,NaN NaN,NaNz" fill="#00629d" fill-opacity="1"></path></g><g><title>&lt;Path&gt;</title><path d="MNaN,NaNcNaN,NaN NaN,NaN NaN,NaNcNaN,NaN NaN,NaN NaN,NaNcNaN,NaN NaN,NaN NaN,NaNcNaN,NaN NaN,NaN NaN,NaNcNaN,NaN NaN,NaN NaN,NaNcNaN,NaN NaN,NaN NaN,NaNcNaN,NaN NaN,NaN NaN,NaNcNaN,NaN NaN,NaN NaN,NaNz" fill="#00629d" fill-opacity="1"></path></g><g><title>&lt;Path&gt;</title><path d="MNaN,NaNcNaN,NaN NaN,NaN NaN,NaNcNaN,NaN NaN,NaN NaN,NaNcNaN,NaN NaN,NaN NaN,NaNcNaN,NaN NaN,NaN NaN,NaNcNaN,NaN NaN,NaN NaN,NaNcNaN,NaN NaN,NaN NaN,NaNcNaN,NaN NaN,NaN NaN,NaNcNaN,NaN NaN,NaN NaN,NaNz" fill="#00639e" fill-opacity="1"></path></g><g><title>&lt;Path&gt;</title><path d="MNaN,NaNcNaN,NaN NaN,NaN NaN,NaNcNaN,NaN NaN,NaN NaN,NaNcNaN,NaN NaN,NaN NaN,NaNcNaN,NaN NaN,NaN NaN,NaNcNaN,NaN NaN,NaN NaN,NaNcNaN,NaN NaN,NaN NaN,NaNcNaN,NaN NaN,NaN NaN,NaNcNaN,NaN NaN,NaN NaN,NaNz" fill="#00659f" fill-opacity="1"></path></g><g><title>&lt;Path&gt;</title><path d="MNaN,NaNcNaN,NaN NaN,NaN NaN,NaNcNaN,NaN NaN,NaN NaN,NaNcNaN,NaN NaN,NaN NaN,NaNcNaN,NaN NaN,NaN NaN,NaNcNaN,NaN NaN,NaN NaN,NaNcNaN,NaN NaN,NaN NaN,NaNcNaN,NaN NaN,NaN NaN,NaNcNaN,NaN NaN,NaN NaN,NaNz" fill="#0066a0" fill-opacity="1"></path></g><g><title>&lt;Path&gt;</title><path d="MNaN,NaNcNaN,NaN NaN,NaN NaN,NaNcNaN,NaN NaN,NaN NaN,NaNcNaN,NaN NaN,NaN NaN,NaNcNaN,NaN NaN,NaN NaN,NaNcNaN,NaN NaN,NaN NaN,NaNcNaN,NaN NaN,NaN NaN,NaNcNaN,NaN NaN,NaN NaN,NaNcNaN,NaN NaN,NaN NaN,NaNz" fill="#0066a0" fill-opacity="1"></path></g><g><title>&lt;Path&gt;</title><path d="MNaN,NaNcNaN,NaN NaN,NaN NaN,NaNcNaN,NaN NaN,NaN NaN,NaNcNaN,NaN NaN,NaN NaN,NaNcNaN,NaN NaN,NaN NaN,NaNcNaN,NaN NaN,NaN NaN,NaNcNaN,NaN NaN,NaN NaN,NaNcNaN,NaN NaN,NaN NaN,NaNcNaN,NaN NaN,NaN NaN,NaNz" fill="#0067a1" fill-opacity="1"></path></g><g><title>&lt;Path&gt;</title><path d="MNaN,NaNcNaN,NaN NaN,NaN NaN,NaNcNaN,NaN NaN,NaN NaN,NaNcNaN,NaN NaN,NaN NaN,NaNcNaN,NaN NaN,NaN NaN,NaNcNaN,NaN NaN,NaN NaN,NaNcNaN,NaN NaN,NaN NaN,NaNcNaN,NaN NaN,NaN NaN,NaNcNaN,NaN NaN,NaN NaN,NaNz" fill="#0069a2" fill-opacity="1"></path></g><g><title>&lt;Path&gt;</title><path d="MNaN,NaNcNaN,NaN NaN,NaN NaN,NaNcNaN,NaN NaN,NaN NaN,NaNcNaN,NaN NaN,NaN NaN,NaNcNaN,NaN NaN,NaN NaN,NaNcNaN,NaN NaN,NaN NaN,NaNcNaN,NaN NaN,NaN NaN,NaNcNaN,NaN NaN,NaN NaN,NaNcNaN,NaN NaN,NaN NaN,NaNz" fill="#006aa3" fill-opacity="1"></path></g><g><title>&lt;Path&gt;</title><path d="MNaN,NaNcNaN,NaN NaN,NaN NaN,NaNcNaN,NaN NaN,NaN NaN,NaNcNaN,NaN NaN,NaN NaN,NaNcNaN,NaN NaN,NaN NaN,NaNcNaN,NaN NaN,NaN NaN,NaNcNaN,NaN NaN,NaN NaN,NaNcNaN,NaN NaN,NaN NaN,NaNcNaN,NaN NaN,NaN NaN,NaNz" fill="#006ca4" fill-opacity="1"></path></g><g><title>&lt;Path&gt;</title><path d="MNaN,NaNcNaN,NaN NaN,NaN NaN,NaNcNaN,NaN NaN,NaN NaN,NaNcNaN,NaN NaN,NaN NaN,NaNcNaN,NaN NaN,NaN NaN,NaNcNaN,NaN NaN,NaN NaN,NaNcNaN,NaN NaN,NaN NaN,NaNcNaN,NaN NaN,NaN NaN,NaNcNaN,NaN NaN,NaN NaN,NaNz" fill="#006ca4" fill-opacity="1"></path></g><g><title>&lt;Path&gt;</title><path d="MNaN,NaNcNaN,NaN NaN,NaN NaN,NaNcNaN,NaN NaN,NaN NaN,NaNcNaN,NaN NaN,NaN NaN,NaNcNaN,NaN NaN,NaN NaN,NaNcNaN,NaN NaN,NaN NaN,NaNcNaN,NaN NaN,NaN NaN,NaNcNaN,NaN NaN,NaN NaN,NaNcNaN,NaN NaN,NaN NaN,NaNz" fill="#006da5" fill-opacity="1"></path></g><g><title>&lt;Path&gt;</title><path d="MNaN,NaNcNaN,NaN NaN,NaN NaN,NaNcNaN,NaN NaN,NaN NaN,NaNcNaN,NaN NaN,NaN NaN,NaNcNaN,NaN NaN,NaN NaN,NaNcNaN,NaN NaN,NaN NaN,NaNcNaN,NaN NaN,NaN NaN,NaNcNaN,NaN NaN,NaN NaN,NaNcNaN,NaN NaN,NaN NaN,NaNz" fill="#006fa6" fill-opacity="1"></path></g><g><title>&lt;Path&gt;</title><path d="MNaN,NaNcNaN,NaN NaN,NaN NaN,NaNcNaN,NaN NaN,NaN NaN,NaNcNaN,NaN NaN,NaN NaN,NaNcNaN,NaN NaN,NaN NaN,NaNcNaN,NaN NaN,NaN NaN,NaNcNaN,NaN NaN,NaN NaN,NaNcNaN,NaN NaN,NaN NaN,NaNcNaN,NaN NaN,NaN NaN,NaNz" fill="#0070a7" fill-opacity="1"></path></g><g><title>&lt;Path&gt;</title><path d="MNaN,NaNcNaN,NaN NaN,NaN NaN,NaNcNaN,NaN NaN,NaN NaN,NaNcNaN,NaN NaN,NaN NaN,NaNcNaN,NaN NaN,NaN NaN,NaNcNaN,NaN NaN,NaN NaN,NaNcNaN,NaN NaN,NaN NaN,NaNcNaN,NaN NaN,NaN NaN,NaNcNaN,NaN NaN,NaN NaN,NaNz" fill="#0070a7" fill-opacity="1"></path></g><g><title>&lt;Path&gt;</title><path d="MNaN,NaNcNaN,NaN NaN,NaN NaN,NaNcNaN,NaN NaN,NaN NaN,NaNcNaN,NaN NaN,NaN NaN,NaNcNaN,NaN NaN,NaN NaN,NaNcNaN,NaN NaN,NaN NaN,NaNcNaN,NaN NaN,NaN NaN,NaNcNaN,NaN NaN,NaN NaN,NaNcNaN,NaN NaN,NaN NaN,NaNz" fill="#0e72a8" fill-opacity="1"></path></g><g><title>&lt;Path&gt;</title><path d="MNaN,NaNcNaN,NaN NaN,NaN NaN,NaNcNaN,NaN NaN,NaN NaN,NaNcNaN,NaN NaN,NaN NaN,NaNcNaN,NaN NaN,NaN NaN,NaNcNaN,NaN NaN,NaN NaN,NaNcNaN,NaN NaN,NaN NaN,NaNcNaN,NaN NaN,NaN NaN,NaNcNaN,NaN NaN,NaN NaN,NaNz" fill="#1673a9" fill-opacity="1"></path></g><g><title>&lt;Path&gt;</title><path d="MNaN,NaNcNaN,NaN NaN,NaN NaN,NaNcNaN,NaN NaN,NaN NaN,NaNcNaN,NaN NaN,NaN NaN,NaNcNaN,NaN NaN,NaN NaN,NaNcNaN,NaN NaN,NaN NaN,NaNcNaN,NaN NaN,NaN NaN,NaNcNaN,NaN NaN,NaN NaN,NaNcNaN,NaN NaN,NaN NaN,NaNz" fill="#1b75aa" fill-opacity="1"></path></g><g><title>&lt;Path&gt;</title><path d="MNaN,NaNcNaN,NaN NaN,NaN NaN,NaNcNaN,NaN NaN,NaN NaN,NaNcNaN,NaN NaN,NaN NaN,NaNcNaN,NaN NaN,NaN NaN,NaNcNaN,NaN NaN,NaN NaN,NaNcNaN,NaN NaN,NaN NaN,NaNcNaN,NaN NaN,NaN NaN,NaNcNaN,NaN NaN,NaN NaN,NaNz" fill="#2076ab" fill-opacity="1"></path></g><g><title>&lt;Path&gt;</title><path d="MNaN,NaNcNaN,NaN NaN,NaN NaN,NaNcNaN,NaN NaN,NaN NaN,NaNcNaN,NaN NaN,NaN NaN,NaNcNaN,NaN NaN,NaN NaN,NaNcNaN,NaN NaN,NaN NaN,NaNcNaN,NaN NaN,NaN NaN,NaNcNaN,NaN NaN,NaN NaN,NaNcNaN,NaN NaN,NaN NaN,NaNz" fill="#2076ab" fill-opacity="1"></path></g><g><title>&lt;Path&gt;</title><path d="MNaN,NaNcNaN,NaN NaN,NaN NaN,NaNcNaN,NaN NaN,NaN NaN,NaNcNaN,NaN NaN,NaN NaN,NaNcNaN,NaN NaN,NaN NaN,NaNcNaN,NaN NaN,NaN NaN,NaNcNaN,NaN NaN,NaN NaN,NaNcNaN,NaN NaN,NaN NaN,NaNcNaN,NaN NaN,NaN NaN,NaNz" fill="#2478ac" fill-opacity="1"></path></g><g><title>&lt;Path&gt;</title><path d="MNaN,NaNcNaN,NaN NaN,NaN NaN,NaNcNaN,NaN NaN,NaN NaN,NaNcNaN,NaN NaN,NaN NaN,NaNcNaN,NaN NaN,NaN NaN,NaNcNaN,NaN NaN,NaN NaN,NaNcNaN,NaN NaN,NaN NaN,NaNcNaN,NaN NaN,NaN NaN,NaNcNaN,NaN NaN,NaN NaN,NaNz" fill="#2879ad" fill-opacity="1"></path></g><g><title>&lt;Path&gt;</title><path d="MNaN,NaNcNaN,NaN NaN,NaN NaN,NaNcNaN,NaN NaN,NaN NaN,NaNcNaN,NaN NaN,NaN NaN,NaNcNaN,NaN NaN,NaN NaN,NaNcNaN,NaN NaN,NaN NaN,NaNcNaN,NaN NaN,NaN NaN,NaNcNaN,NaN NaN,NaN NaN,NaNcNaN,NaN NaN,NaN NaN,NaNz" fill="#2c7bae" fill-opacity="1"></path></g><g><title>&lt;Path&gt;</title><path d="MNaN,NaNcNaN,NaN NaN,NaN NaN,NaNcNaN,NaN NaN,NaN NaN,NaNcNaN,NaN NaN,NaN NaN,NaNcNaN,NaN NaN,NaN NaN,NaNcNaN,NaN NaN,NaN NaN,NaNcNaN,NaN NaN,NaN NaN,NaNcNaN,NaN NaN,NaN NaN,NaNcNaN,NaN NaN,NaN NaN,NaNz" fill="#307caf" fill-opacity="1"></path></g><g><title>&lt;Path&gt;</title><path d="M41.5043,42.7801v0h31.407c0,-8.443 -3.332,-16.107 -8.752,-21.751c-5.05,-2.985 -10.939,-4.701 -17.229,-4.701c-18.726,0 -33.912,15.187 -33.912,33.913c0,2.542 0.281,5.018 0.812,7.401c5.301,9.849 15.705,16.545 27.674,16.545c17.345,0 31.407,-14.061 31.407,-31.407z" fill="#307caf" fill-opacity="1"></path></g><g><title>&lt;Path&gt;</title><path d="M41.5043,42.7801v0h31.076c0,-8.784 -3.645,-16.715 -9.505,-22.367c-4.8,-2.605 -10.3,-4.085 -16.145,-4.085c-18.726,0 -33.912,15.187 -33.912,33.913c0,2.117 0.195,4.189 0.567,6.199c5.056,10.314 15.657,17.416 27.919,17.416c17.163,0 31.076,-13.913 31.076,-31.076z" fill="#337eb0" fill-opacity="1"></path></g><g><title>&lt;Path&gt;</title><path d="MNaN,NaNcNaN,NaN NaN,NaN NaN,NaNcNaN,NaN NaN,NaN NaN,NaNcNaN,NaN NaN,NaN NaN,NaNcNaN,NaN NaN,NaN NaN,NaNcNaN,NaN NaN,NaN NaN,NaNcNaN,NaN NaN,NaN NaN,NaNcNaN,NaN NaN,NaN NaN,NaNcNaN,NaN NaN,NaN NaN,NaNz" fill="#367fb1" fill-opacity="1"></path></g><g><title>&lt;Path&gt;</title><path d="MNaN,NaNcNaN,NaN NaN,NaN NaN,NaNcNaN,NaN NaN,NaN NaN,NaNcNaN,NaN NaN,NaN NaN,NaNcNaN,NaN NaN,NaN NaN,NaNcNaN,NaN NaN,NaN NaN,NaNcNaN,NaN NaN,NaN NaN,NaNcNaN,NaN NaN,NaN NaN,NaNcNaN,NaN NaN,NaN NaN,NaNz" fill="#3a81b2" fill-opacity="1"></path></g><g><title>&lt;Path&gt;</title><path d="MNaN,NaNcNaN,NaN NaN,NaN NaN,NaNcNaN,NaN NaN,NaN NaN,NaNcNaN,NaN NaN,NaN NaN,NaNcNaN,NaN NaN,NaN NaN,NaNcNaN,NaN NaN,NaN NaN,NaNcNaN,NaN NaN,NaN NaN,NaNcNaN,NaN NaN,NaN NaN,NaNcNaN,NaN NaN,NaN NaN,NaNz" fill="#3a81b2" fill-opacity="1"></path></g><g><title>&lt;Path&gt;</title><path d="MNaN,NaNcNaN,NaN NaN,NaN NaN,NaNcNaN,NaN NaN,NaN NaN,NaNcNaN,NaN NaN,NaN NaN,NaNcNaN,NaN NaN,NaN NaN,NaNcNaN,NaN NaN,NaN NaN,NaNcNaN,NaN NaN,NaN NaN,NaNcNaN,NaN NaN,NaN NaN,NaNcNaN,NaN NaN,NaN NaN,NaNz" fill="#3d83b3" fill-opacity="1"></path></g><g><title>&lt;Path&gt;</title><path d="MNaN,NaNcNaN,NaN NaN,NaN NaN,NaNcNaN,NaN NaN,NaN NaN,NaNcNaN,NaN NaN,NaN NaN,NaNcNaN,NaN NaN,NaN NaN,NaNcNaN,NaN NaN,NaN NaN,NaNcNaN,NaN NaN,NaN NaN,NaNcNaN,NaN NaN,NaN NaN,NaNz" fill="#4084b4" fill-opacity="1"></path></g><g><title>&lt;Path&gt;</title><path d="MNaN,NaNcNaN,NaN NaN,NaN NaN,NaNcNaN,NaN NaN,NaN NaN,NaNcNaN,NaN NaN,NaN NaN,NaNcNaN,NaN NaN,NaN NaN,NaNcNaN,NaN NaN,NaN NaN,NaNcNaN,NaN NaN,NaN NaN,NaNcNaN,NaN NaN,NaN NaN,NaNz" fill="#4386b5" fill-opacity="1"></path></g><g><title>&lt;Path&gt;</title><path d="MNaN,NaNcNaN,NaN NaN,NaN NaN,NaNcNaN,NaN NaN,NaN NaN,NaNcNaN,NaN NaN,NaN NaN,NaNcNaN,NaN NaN,NaN NaN,NaNcNaN,NaN NaN,NaN NaN,NaNcNaN,NaN NaN,NaN NaN,NaNcNaN,NaN NaN,NaN NaN,NaNz" fill="#4687b6" fill-opacity="1"></path></g><g><title>&lt;Path&gt;</title><path d="MNaN,NaNcNaN,NaN NaN,NaN NaN,NaNcNaN,NaN NaN,NaN NaN,NaNcNaN,NaN NaN,NaN NaN,NaNcNaN,NaN NaN,NaN NaN,NaNcNaN,NaN NaN,NaN NaN,NaNcNaN,NaN NaN,NaN NaN,NaNcNaN,NaN NaN,NaN NaN,NaNz" fill="#4687b6" fill-opacity="1"></path></g><g><title>&lt;Path&gt;</title><path d="MNaN,NaNcNaN,NaN NaN,NaN NaN,NaNcNaN,NaN NaN,NaN NaN,NaNcNaN,NaN NaN,NaN NaN,NaNcNaN,NaN NaN,NaN NaN,NaNcNaN,NaN NaN,NaN NaN,NaNcNaN,NaN NaN,NaN NaN,NaNcNaN,NaN NaN,NaN NaN,NaNz" fill="#4989b7" fill-opacity="1"></path></g><g><title>&lt;Path&gt;</title><path d="MNaN,NaNcNaN,NaN NaN,NaN NaN,NaNcNaN,NaN NaN,NaN NaN,NaNcNaN,NaN NaN,NaN NaN,NaNcNaN,NaN NaN,NaN NaN,NaNcNaN,NaN NaN,NaN NaN,NaNcNaN,NaN NaN,NaN NaN,NaNcNaN,NaN NaN,NaN NaN,NaNz" fill="#4b8ab9" fill-opacity="1"></path></g><g><title>&lt;Path&gt;</title><path d="MNaN,NaNcNaN,NaN NaN,NaN NaN,NaNcNaN,NaN NaN,NaN NaN,NaNcNaN,NaN NaN,NaN NaN,NaNcNaN,NaN NaN,NaN NaN,NaNcNaN,NaN NaN,NaN NaN,NaNcNaN,NaN NaN,NaN NaN,NaNcNaN,NaN NaN,NaN NaN,NaNcNaN,NaN NaN,NaN NaN,NaNz" fill="#4e8cba" fill-opacity="1"></path></g><g><title>&lt;Path&gt;</title><path d="MNaN,NaNcNaN,NaN NaN,NaN NaN,NaNcNaN,NaN NaN,NaN NaN,NaNcNaN,NaN NaN,NaN NaN,NaNcNaN,NaN NaN,NaN NaN,NaNcNaN,NaN NaN,NaN NaN,NaNcNaN,NaN NaN,NaN NaN,NaNcNaN,NaN NaN,NaN NaN,NaNcNaN,NaN NaN,NaN NaN,NaNz" fill="#4e8cba" fill-opacity="1"></path></g><g><title>&lt;Path&gt;</title><path d="M41.5043,42.7801v0h26.779c0,-13.322 -9.729,-24.37 -22.469,-26.432c-14.188,0.459 -26.177,9.638 -30.78,22.351c-0.204,1.331 -0.309,2.694 -0.309,4.081c0,14.789 11.989,26.779 26.779,26.779c14.789,0 26.778,-11.989 26.778,-26.779z" fill="#518ebb" fill-opacity="1"></path></g><g><title>&lt;Path&gt;</title><path d="MNaN,NaNcNaN,NaN NaN,NaN NaN,NaNcNaN,NaN NaN,NaN NaN,NaNcNaN,NaN NaN,NaN NaN,NaNcNaN,NaN NaN,NaN NaN,NaNcNaN,NaN NaN,NaN NaN,NaNcNaN,NaN NaN,NaN NaN,NaNcNaN,NaN NaN,NaN NaN,NaNz" fill="#548fbc" fill-opacity="1"></path></g><g><title>&lt;Path&gt;</title><path d="MNaN,NaNcNaN,NaN NaN,NaN NaN,NaNcNaN,NaN NaN,NaN NaN,NaNcNaN,NaN NaN,NaN NaN,NaNcNaN,NaN NaN,NaN NaN,NaNcNaN,NaN NaN,NaN NaN,NaNcNaN,NaN NaN,NaN NaN,NaNcNaN,NaN NaN,NaN NaN,NaNz" fill="#5791bd" fill-opacity="1"></path></g><g><title>&lt;Path&gt;</title><path d="MNaN,NaNcNaN,NaN NaN,NaN NaN,NaNcNaN,NaN NaN,NaN NaN,NaNcNaN,NaN NaN,NaN NaN,NaNcNaN,NaN NaN,NaN NaN,NaNcNaN,NaN NaN,NaN NaN,NaNcNaN,NaN NaN,NaN NaN,NaNcNaN,NaN NaN,NaN NaN,NaNcNaN,NaN NaN,NaN NaN,NaNz" fill="#5992be" fill-opacity="1"></path></g><g><title>&lt;Path&gt;</title><path d="MNaN,NaNcNaN,NaN NaN,NaN NaN,NaNcNaN,NaN NaN,NaN NaN,NaNcNaN,NaN NaN,NaN NaN,NaNcNaN,NaN NaN,NaN NaN,NaNcNaN,NaN NaN,NaN NaN,NaNcNaN,NaN NaN,NaN NaN,NaNcNaN,NaN NaN,NaN NaN,NaNcNaN,NaN NaN,NaN NaN,NaNz" fill="#5992be" fill-opacity="1"></path></g><g><title>&lt;Path&gt;</title><path d="MNaN,NaNcNaN,NaN NaN,NaN NaN,NaNcNaN,NaN NaN,NaN NaN,NaNcNaN,NaN NaN,NaN NaN,NaNcNaN,NaN NaN,NaN NaN,NaNcNaN,NaN NaN,NaN NaN,NaNcNaN,NaN NaN,NaN NaN,NaNcNaN,NaN NaN,NaN NaN,NaNcNaN,NaN NaN,NaN NaN,NaNz" fill="#5c94bf" fill-opacity="1"></path></g><g><title>&lt;Path&gt;</title><path d="MNaN,NaNcNaN,NaN NaN,NaN NaN,NaNcNaN,NaN NaN,NaN NaN,NaNcNaN,NaN NaN,NaN NaN,NaNcNaN,NaN NaN,NaN NaN,NaNcNaN,NaN NaN,NaN NaN,NaNcNaN,NaN NaN,NaN NaN,NaNcNaN,NaN NaN,NaN NaN,NaNcNaN,NaN NaN,NaN NaN,NaNz" fill="#5f96c0" fill-opacity="1"></path></g><g><title>&lt;Path&gt;</title><path d="MNaN,NaNcNaN,NaN NaN,NaN NaN,NaNcNaN,NaN NaN,NaN NaN,NaNcNaN,NaN NaN,NaN NaN,NaNcNaN,NaN NaN,NaN NaN,NaNcNaN,NaN NaN,NaN NaN,NaNcNaN,NaN NaN,NaN NaN,NaNz" fill="#6297c1" fill-opacity="1"></path></g><g><title>&lt;Path&gt;</title><path d="MNaN,NaNcNaN,NaN NaN,NaN NaN,NaNcNaN,NaN NaN,NaN NaN,NaNcNaN,NaN NaN,NaN NaN,NaNcNaN,NaN NaN,NaN NaN,NaNcNaN,NaN NaN,NaN NaN,NaNcNaN,NaN NaN,NaN NaN,NaNz" fill="#6297c1" fill-opacity="1"></path></g><g><title>&lt;Path&gt;</title><path d="MNaN,NaNcNaN,NaN NaN,NaN NaN,NaNcNaN,NaN NaN,NaN NaN,NaNcNaN,NaN NaN,NaN NaN,NaNcNaN,NaN NaN,NaN NaN,NaNcNaN,NaN NaN,NaN NaN,NaNcNaN,NaN NaN,NaN NaN,NaNz" fill="#6499c2" fill-opacity="1"></path></g><g><title>&lt;Path&gt;</title><path d="MNaN,NaNcNaN,NaN NaN,NaN NaN,NaNcNaN,NaN NaN,NaN NaN,NaNcNaN,NaN NaN,NaN NaN,NaNcNaN,NaN NaN,NaN NaN,NaNcNaN,NaN NaN,NaN NaN,NaNcNaN,NaN NaN,NaN NaN,NaNz" fill="#679bc3" fill-opacity="1"></path></g><g><title>&lt;Path&gt;</title><path d="MNaN,NaNcNaN,NaN NaN,NaN NaN,NaNcNaN,NaN NaN,NaN NaN,NaNcNaN,NaN NaN,NaN NaN,NaNcNaN,NaN NaN,NaN NaN,NaNcNaN,NaN NaN,NaN NaN,NaNcNaN,NaN NaN,NaN NaN,NaNz" fill="#6a9cc4" fill-opacity="1"></path></g><g><title>&lt;Path&gt;</title><path d="MNaN,NaNcNaN,NaN NaN,NaN NaN,NaNcNaN,NaN NaN,NaN NaN,NaNcNaN,NaN NaN,NaN NaN,NaNcNaN,NaN NaN,NaN NaN,NaNcNaN,NaN NaN,NaN NaN,NaNcNaN,NaN NaN,NaN NaN,NaNz" fill="#6c9ec5" fill-opacity="1"></path></g><g><title>&lt;Path&gt;</title><path d="MNaN,NaNcNaN,NaN NaN,NaN NaN,NaNcNaN,NaN NaN,NaN NaN,NaNcNaN,NaN NaN,NaN NaN,NaNcNaN,NaN NaN,NaN NaN,NaNcNaN,NaN NaN,NaN NaN,NaNcNaN,NaN NaN,NaN NaN,NaNz" fill="#6c9ec5" fill-opacity="1"></path></g><g><title>&lt;Path&gt;</title><path d="MNaN,NaNcNaN,NaN NaN,NaN NaN,NaNcNaN,NaN NaN,NaN NaN,NaNcNaN,NaN NaN,NaN NaN,NaNcNaN,NaN NaN,NaN NaN,NaNcNaN,NaN NaN,NaN NaN,NaNcNaN,NaN NaN,NaN NaN,NaNz" fill="#6fa0c6" fill-opacity="1"></path></g><g><title>&lt;Path&gt;</title><path d="MNaN,NaNcNaN,NaN NaN,NaN NaN,NaNcNaN,NaN NaN,NaN NaN,NaNcNaN,NaN NaN,NaN NaN,NaNcNaN,NaN NaN,NaN NaN,NaNcNaN,NaN NaN,NaN NaN,NaNcNaN,NaN NaN,NaN NaN,NaNz" fill="#72a1c7" fill-opacity="1"></path></g><g><title>&lt;Path&gt;</title><path d="MNaN,NaNcNaN,NaN NaN,NaN NaN,NaNcNaN,NaN NaN,NaN NaN,NaNcNaN,NaN NaN,NaN NaN,NaNcNaN,NaN NaN,NaN NaN,NaNcNaN,NaN NaN,NaN NaN,NaNcNaN,NaN NaN,NaN NaN,NaNz" fill="#74a3c8" fill-opacity="1"></path></g><g><title>&lt;Path&gt;</title><path d="MNaN,NaNcNaN,NaN NaN,NaN NaN,NaNcNaN,NaN NaN,NaN NaN,NaNcNaN,NaN NaN,NaN NaN,NaNcNaN,NaN NaN,NaN NaN,NaNcNaN,NaN NaN,NaN NaN,NaNcNaN,NaN NaN,NaN NaN,NaNz" fill="#77a5c9" fill-opacity="1"></path></g><g><title>&lt;Path&gt;</title><path d="MNaN,NaNcNaN,NaN NaN,NaN NaN,NaNcNaN,NaN NaN,NaN NaN,NaNcNaN,NaN NaN,NaN NaN,NaNcNaN,NaN NaN,NaN NaN,NaNcNaN,NaN NaN,NaN NaN,NaNcNaN,NaN NaN,NaN NaN,NaNz" fill="#77a5c9" fill-opacity="1"></path></g><g><title>&lt;Path&gt;</title><path d="MNaN,NaNcNaN,NaN NaN,NaN NaN,NaNcNaN,NaN NaN,NaN NaN,NaNcNaN,NaN NaN,NaN NaN,NaNcNaN,NaN NaN,NaN NaN,NaNcNaN,NaN NaN,NaN NaN,NaNcNaN,NaN NaN,NaN NaN,NaNz" fill="#79a6ca" fill-opacity="1"></path></g><g><title>&lt;Path&gt;</title><path d="M41.5043,42.7801v0h20.167c0,-11.138 -9.03,-20.167 -20.167,-20.167c-11.138,0 -20.167,9.029 -20.167,20.167c0,11.138 9.029,20.167 20.167,20.167c11.137,-0.001 20.166,-9.029 20.166,-20.167z" fill="#7ca8cb" fill-opacity="1"></path></g><g><title>&lt;Path&gt;</title><path d="MNaN,NaNcNaN,NaN NaN,NaN NaN,NaNcNaN,NaN NaN,NaN NaN,NaNcNaN,NaN NaN,NaN NaN,NaNcNaN,NaN NaN,NaN NaN,NaNcNaN,NaN NaN,NaN NaN,NaNcNaN,NaN NaN,NaN NaN,NaNz" fill="#7faacc" fill-opacity="1"></path></g><g><title>&lt;Path&gt;</title><path d="MNaN,NaNcNaN,NaN NaN,NaN NaN,NaNcNaN,NaN NaN,NaN NaN,NaNcNaN,NaN NaN,NaN NaN,NaNcNaN,NaN NaN,NaN NaN,NaNcNaN,NaN NaN,NaN NaN,NaNcNaN,NaN NaN,NaN NaN,NaNz" fill="#7faacc" fill-opacity="1"></path></g><g><title>&lt;Path&gt;</title><path d="MNaN,NaNcNaN,NaN NaN,NaN NaN,NaNcNaN,NaN NaN,NaN NaN,NaNcNaN,NaN NaN,NaN NaN,NaNcNaN,NaN NaN,NaN NaN,NaNcNaN,NaN NaN,NaN NaN,NaNcNaN,NaN NaN,NaN NaN,NaNz" fill="#81abce" fill-opacity="1"></path></g><g><title>&lt;Path&gt;</title><path d="MNaN,NaNcNaN,NaN NaN,NaN NaN,NaNcNaN,NaN NaN,NaN NaN,NaNcNaN,NaN NaN,NaN NaN,NaNcNaN,NaN NaN,NaN NaN,NaNcNaN,NaN NaN,NaN NaN,NaNcNaN,NaN NaN,NaN NaN,NaNz" fill="#84adcf" fill-opacity="1"></path></g><g><title>&lt;Path&gt;</title><path d="MNaN,NaNcNaN,NaN NaN,NaN NaN,NaNcNaN,NaN NaN,NaN NaN,NaNcNaN,NaN NaN,NaN NaN,NaNcNaN,NaN NaN,NaN NaN,NaNcNaN,NaN NaN,NaN NaN,NaNcNaN,NaN NaN,NaN NaN,NaNz" fill="#87afd0" fill-opacity="1"></path></g><g><title>&lt;Path&gt;</title><path d="MNaN,NaNcNaN,NaN NaN,NaN NaN,NaNcNaN,NaN NaN,NaN NaN,NaNcNaN,NaN NaN,NaN NaN,NaNcNaN,NaN NaN,NaN NaN,NaNcNaN,NaN NaN,NaN NaN,NaNcNaN,NaN NaN,NaN NaN,NaNz" fill="#89b1d1" fill-opacity="1"></path></g><g><title>&lt;Path&gt;</title><path d="MNaN,NaNcNaN,NaN NaN,NaN NaN,NaNcNaN,NaN NaN,NaN NaN,NaNcNaN,NaN NaN,NaN NaN,NaNcNaN,NaN NaN,NaN NaN,NaNcNaN,NaN NaN,NaN NaN,NaNcNaN,NaN NaN,NaN NaN,NaNz" fill="#89b1d1" fill-opacity="1"></path></g><g><title>&lt;Path&gt;</title><path d="MNaN,NaNcNaN,NaN NaN,NaN NaN,NaNcNaN,NaN NaN,NaN NaN,NaNcNaN,NaN NaN,NaN NaN,NaNcNaN,NaN NaN,NaN NaN,NaNcNaN,NaN NaN,NaN NaN,NaNcNaN,NaN NaN,NaN NaN,NaNz" fill="#8cb2d2" fill-opacity="1"></path></g><g><title>&lt;Path&gt;</title><path d="MNaN,NaNcNaN,NaN NaN,NaN NaN,NaNcNaN,NaN NaN,NaN NaN,NaNcNaN,NaN NaN,NaN NaN,NaNcNaN,NaN NaN,NaN NaN,NaNcNaN,NaN NaN,NaN NaN,NaNcNaN,NaN NaN,NaN NaN,NaNz" fill="#8fb4d3" fill-opacity="1"></path></g><g><title>&lt;Path&gt;</title><path d="MNaN,NaNcNaN,NaN NaN,NaN NaN,NaNcNaN,NaN NaN,NaN NaN,NaNcNaN,NaN NaN,NaN NaN,NaNcNaN,NaN NaN,NaN NaN,NaNcNaN,NaN NaN,NaN NaN,NaNcNaN,NaN NaN,NaN NaN,NaNz" fill="#91b6d4" fill-opacity="1"></path></g><g><title>&lt;Path&gt;</title><path d="MNaN,NaNcNaN,NaN NaN,NaN NaN,NaNcNaN,NaN NaN,NaN NaN,NaNcNaN,NaN NaN,NaN NaN,NaNcNaN,NaN NaN,NaN NaN,NaNcNaN,NaN NaN,NaN NaN,NaNcNaN,NaN NaN,NaN NaN,NaNz" fill="#91b6d4" fill-opacity="1"></path></g><g><title>&lt;Path&gt;</title><path d="MNaN,NaNcNaN,NaN NaN,NaN NaN,NaNcNaN,NaN NaN,NaN NaN,NaNcNaN,NaN NaN,NaN NaN,NaNcNaN,NaN NaN,NaN NaN,NaNcNaN,NaN NaN,NaN NaN,NaNcNaN,NaN NaN,NaN NaN,NaNz" fill="#94b7d5" fill-opacity="1"></path></g><g><title>&lt;Path&gt;</title><path d="MNaN,NaNcNaN,NaN NaN,NaN NaN,NaNcNaN,NaN NaN,NaN NaN,NaNcNaN,NaN NaN,NaN NaN,NaNcNaN,NaN NaN,NaN NaN,NaNcNaN,NaN NaN,NaN NaN,NaNcNaN,NaN NaN,NaN NaN,NaNz" fill="#96b9d6" fill-opacity="1"></path></g><g><title>&lt;Path&gt;</title><path d="MNaN,NaNcNaN,NaN NaN,NaN NaN,NaNcNaN,NaN NaN,NaN NaN,NaNcNaN,NaN NaN,NaN NaN,NaNcNaN,NaN NaN,NaN NaN,NaNcNaN,NaN NaN,NaN NaN,NaNcNaN,NaN NaN,NaN NaN,NaNz" fill="#99bbd7" fill-opacity="1"></path></g><g><title>&lt;Path&gt;</title><path d="MNaN,NaNcNaN,NaN NaN,NaN NaN,NaNcNaN,NaN NaN,NaN NaN,NaNcNaN,NaN NaN,NaN NaN,NaNcNaN,NaN NaN,NaN NaN,NaNcNaN,NaN NaN,NaN NaN,NaNcNaN,NaN NaN,NaN NaN,NaNz" fill="#9cbdd8" fill-opacity="1"></path></g><g><title>&lt;Path&gt;</title><path d="MNaN,NaNcNaN,NaN NaN,NaN NaN,NaNcNaN,NaN NaN,NaN NaN,NaNcNaN,NaN NaN,NaN NaN,NaNcNaN,NaN NaN,NaN NaN,NaNcNaN,NaN NaN,NaN NaN,NaNcNaN,NaN NaN,NaN NaN,NaNz" fill="#9cbdd8" fill-opacity="1"></path></g><g><title>&lt;Path&gt;</title><path d="MNaN,NaNcNaN,NaN NaN,NaN NaN,NaNcNaN,NaN NaN,NaN NaN,NaNcNaN,NaN NaN,NaN NaN,NaNcNaN,NaN NaN,NaN NaN,NaNcNaN,NaN NaN,NaN NaN,NaNcNaN,NaN NaN,NaN NaN,NaNz" fill="#9ebed9" fill-opacity="1"></path></g><g><title>&lt;Path&gt;</title><path d="MNaN,NaNcNaN,NaN NaN,NaN NaN,NaNcNaN,NaN NaN,NaN NaN,NaNcNaN,NaN NaN,NaN NaN,NaNcNaN,NaN NaN,NaN NaN,NaNcNaN,NaN NaN,NaN NaN,NaNcNaN,NaN NaN,NaN NaN,NaNz" fill="#a1c0da" fill-opacity="1"></path></g><g><title>&lt;Path&gt;</title><path d="M41.5043,42.7801v0h13.885c0,-7.669 -6.217,-13.885 -13.885,-13.885c-7.668,-0.001 -13.886,6.217 -13.886,13.885c0,7.668 6.218,13.885 13.886,13.885c7.668,0 13.885,-6.217 13.885,-13.885z" fill="#a4c2db" fill-opacity="1"></path></g><g><title>&lt;Path&gt;</title><path d="M41.5043,42.7801v0h13.555c0,-7.486 -6.069,-13.555 -13.555,-13.555c-7.486,0 -13.555,6.069 -13.555,13.555c0,7.485 6.069,13.555 13.555,13.555c7.486,-0.001 13.555,-6.069 13.555,-13.555z" fill="#a4c2db" fill-opacity="1"></path></g><g><title>&lt;Path&gt;</title><path d="MNaN,NaNcNaN,NaN NaN,NaN NaN,NaNcNaN,NaN NaN,NaN NaN,NaNcNaN,NaN NaN,NaN NaN,NaNcNaN,NaN NaN,NaN NaN,NaNcNaN,NaN NaN,NaN NaN,NaNcNaN,NaN NaN,NaN NaN,NaNz" fill="#a6c4dc" fill-opacity="1"></path></g><g><title>&lt;Path&gt;</title><path d="MNaN,NaNcNaN,NaN NaN,NaN NaN,NaNcNaN,NaN NaN,NaN NaN,NaNcNaN,NaN NaN,NaN NaN,NaNcNaN,NaN NaN,NaN NaN,NaNcNaN,NaN NaN,NaN NaN,NaNcNaN,NaN NaN,NaN NaN,NaNz" fill="#a9c5dd" fill-opacity="1"></path></g><g><title>&lt;Path&gt;</title><path d="MNaN,NaNcNaN,NaN NaN,NaN NaN,NaNcNaN,NaN NaN,NaN NaN,NaNcNaN,NaN NaN,NaN NaN,NaNcNaN,NaN NaN,NaN NaN,NaNcNaN,NaN NaN,NaN NaN,NaNcNaN,NaN NaN,NaN NaN,NaNz" fill="#acc7df" fill-opacity="1"></path></g><g><title>&lt;Path&gt;</title><path d="MNaN,NaNcNaN,NaN NaN,NaN NaN,NaNcNaN,NaN NaN,NaN NaN,NaNcNaN,NaN NaN,NaN NaN,NaNcNaN,NaN NaN,NaN NaN,NaNcNaN,NaN NaN,NaN NaN,NaNcNaN,NaN NaN,NaN NaN,NaNz" fill="#afc9e0" fill-opacity="1"></path></g><g><title>&lt;Path&gt;</title><path d="MNaN,NaNcNaN,NaN NaN,NaN NaN,NaNcNaN,NaN NaN,NaN NaN,NaNcNaN,NaN NaN,NaN NaN,NaNcNaN,NaN NaN,NaN NaN,NaNcNaN,NaN NaN,NaN NaN,NaNcNaN,NaN NaN,NaN NaN,NaNz" fill="#afc9e0" fill-opacity="1"></path></g><g><title>&lt;Path&gt;</title><path d="MNaN,NaNcNaN,NaN NaN,NaN NaN,NaNcNaN,NaN NaN,NaN NaN,NaNcNaN,NaN NaN,NaN NaN,NaNcNaN,NaN NaN,NaN NaN,NaNcNaN,NaN NaN,NaN NaN,NaNcNaN,NaN NaN,NaN NaN,NaNz" fill="#b1cbe1" fill-opacity="1"></path></g><g><title>&lt;Path&gt;</title><path d="M41.5043,42.7801v0h11.24c0,-6.208 -5.032,-11.24 -11.24,-11.24c-6.208,-0.001 -11.24,5.032 -11.24,11.24c0,6.208 5.032,11.24 11.24,11.24c6.208,0 11.24,-5.032 11.24,-11.24z" fill="#b4cde2" fill-opacity="1"></path></g><g><title>&lt;Path&gt;</title><path d="MNaN,NaNcNaN,NaN NaN,NaN NaN,NaNcNaN,NaN NaN,NaN NaN,NaNcNaN,NaN NaN,NaN NaN,NaNcNaN,NaN NaN,NaN NaN,NaNcNaN,NaN NaN,NaN NaN,NaNcNaN,NaN NaN,NaN NaN,NaNz" fill="#b7cee3" fill-opacity="1"></path></g><g><title>&lt;Path&gt;</title><path d="MNaN,NaNcNaN,NaN NaN,NaN NaN,NaNcNaN,NaN NaN,NaN NaN,NaNcNaN,NaN NaN,NaN NaN,NaNcNaN,NaN NaN,NaN NaN,NaNcNaN,NaN NaN,NaN NaN,NaNcNaN,NaN NaN,NaN NaN,NaNz" fill="#b9d0e4" fill-opacity="1"></path></g><g><title>&lt;Path&gt;</title><path d="MNaN,NaNcNaN,NaN NaN,NaN NaN,NaNcNaN,NaN NaN,NaN NaN,NaNcNaN,NaN NaN,NaN NaN,NaNcNaN,NaN NaN,NaN NaN,NaNcNaN,NaN NaN,NaN NaN,NaNcNaN,NaN NaN,NaN NaN,NaNz" fill="#b9d0e4" fill-opacity="1"></path></g><g><title>&lt;Path&gt;</title><path d="MNaN,NaNcNaN,NaN NaN,NaN NaN,NaNcNaN,NaN NaN,NaN NaN,NaNcNaN,NaN NaN,NaN NaN,NaNcNaN,NaN NaN,NaN NaN,NaNcNaN,NaN NaN,NaN NaN,NaNcNaN,NaN NaN,NaN NaN,NaNz" fill="#bcd2e5" fill-opacity="1"></path></g><g><title>&lt;Path&gt;</title><path d="MNaN,NaNcNaN,NaN NaN,NaN NaN,NaNcNaN,NaN NaN,NaN NaN,NaNcNaN,NaN NaN,NaN NaN,NaNcNaN,NaN NaN,NaN NaN,NaNcNaN,NaN NaN,NaN NaN,NaNcNaN,NaN NaN,NaN NaN,NaNz" fill="#bfd4e6" fill-opacity="1"></path></g><g><title>&lt;Path&gt;</title><path d="MNaN,NaNcNaN,NaN NaN,NaN NaN,NaNcNaN,NaN NaN,NaN NaN,NaNcNaN,NaN NaN,NaN NaN,NaNcNaN,NaN NaN,NaN NaN,NaNcNaN,NaN NaN,NaN NaN,NaNcNaN,NaN NaN,NaN NaN,NaNz" fill="#c1d6e7" fill-opacity="1"></path></g><g><title>&lt;Path&gt;</title><path d="MNaN,NaNcNaN,NaN NaN,NaN NaN,NaNcNaN,NaN NaN,NaN NaN,NaNcNaN,NaN NaN,NaN NaN,NaNcNaN,NaN NaN,NaN NaN,NaNcNaN,NaN NaN,NaN NaN,NaNcNaN,NaN NaN,NaN NaN,NaNz" fill="#c1d6e7" fill-opacity="1"></path></g><g><title>&lt;Path&gt;</title><path d="MNaN,NaNcNaN,NaN NaN,NaN NaN,NaNcNaN,NaN NaN,NaN NaN,NaNcNaN,NaN NaN,NaN NaN,NaNcNaN,NaN NaN,NaN NaN,NaNcNaN,NaN NaN,NaN NaN,NaNcNaN,NaN NaN,NaN NaN,NaNz" fill="#c4d8e8" fill-opacity="1"></path></g><g><title>&lt;Path&gt;</title><path d="MNaN,NaNcNaN,NaN NaN,NaN NaN,NaNcNaN,NaN NaN,NaN NaN,NaNcNaN,NaN NaN,NaN NaN,NaNcNaN,NaN NaN,NaN NaN,NaNcNaN,NaN NaN,NaN NaN,NaNcNaN,NaN NaN,NaN NaN,NaNz" fill="#c7d9e9" fill-opacity="1"></path></g><g><title>&lt;Path&gt;</title><path d="M41.5043,42.7801v0h7.934c0,-4.382 -3.552,-7.935 -7.934,-7.935c-4.383,0 -7.935,3.553 -7.935,7.935c0.001,4.382 3.552,7.934 7.935,7.934c4.382,0 7.934,-3.552 7.934,-7.934z" fill="#cadbea" fill-opacity="1"></path></g><g><title>&lt;Path&gt;</title><path d="MNaN,NaNcNaN,NaN NaN,NaN NaN,NaNcNaN,NaN NaN,NaN NaN,NaNcNaN,NaN NaN,NaN NaN,NaNcNaN,NaN NaN,NaN NaN,NaNcNaN,NaN NaN,NaN NaN,NaNcNaN,NaN NaN,NaN NaN,NaNz" fill="#ccddeb" fill-opacity="1"></path></g><g><title>&lt;Path&gt;</title><path d="MNaN,NaNcNaN,NaN NaN,NaN NaN,NaNcNaN,NaN NaN,NaN NaN,NaNcNaN,NaN NaN,NaN NaN,NaNcNaN,NaN NaN,NaN NaN,NaNcNaN,NaN NaN,NaN NaN,NaNcNaN,NaN NaN,NaN NaN,NaNz" fill="#ccddeb" fill-opacity="1"></path></g><g><title>&lt;Path&gt;</title><path d="MNaN,NaNcNaN,NaN NaN,NaN NaN,NaNcNaN,NaN NaN,NaN NaN,NaNcNaN,NaN NaN,NaN NaN,NaNcNaN,NaN NaN,NaN NaN,NaNcNaN,NaN NaN,NaN NaN,NaNcNaN,NaN NaN,NaN NaN,NaNz" fill="#cfdfed" fill-opacity="1"></path></g><g><title>&lt;Path&gt;</title><path d="MNaN,NaNcNaN,NaN NaN,NaN NaN,NaNcNaN,NaN NaN,NaN NaN,NaNcNaN,NaN NaN,NaN NaN,NaNcNaN,NaN NaN,NaN NaN,NaNcNaN,NaN NaN,NaN NaN,NaNcNaN,NaN NaN,NaN NaN,NaNz" fill="#d2e1ee" fill-opacity="1"></path></g><g><title>&lt;Path&gt;</title><path d="MNaN,NaNcNaN,NaN NaN,NaN NaN,NaNcNaN,NaN NaN,NaN NaN,NaNcNaN,NaN NaN,NaN NaN,NaNcNaN,NaN NaN,NaN NaN,NaNcNaN,NaN NaN,NaN NaN,NaNcNaN,NaN NaN,NaN NaN,NaNz" fill="#d5e3ef" fill-opacity="1"></path></g><g><title>&lt;Path&gt;</title><path d="MNaN,NaNcNaN,NaN NaN,NaN NaN,NaNcNaN,NaN NaN,NaN NaN,NaNcNaN,NaN NaN,NaN NaN,NaNcNaN,NaN NaN,NaN NaN,NaNcNaN,NaN NaN,NaN NaN,NaNcNaN,NaN NaN,NaN NaN,NaNz" fill="#d5e3ef" fill-opacity="1"></path></g><g><title>&lt;Path&gt;</title><path d="M41.5043,42.7801v0h5.62c0,-3.104 -2.516,-5.621 -5.62,-5.621c-3.104,0 -5.62,2.517 -5.62,5.621c0,3.104 2.516,5.62 5.62,5.62c3.104,0 5.62,-2.516 5.62,-5.62z" fill="#d7e4f0" fill-opacity="1"></path></g><g><title>&lt;Path&gt;</title><path d="MNaN,NaNcNaN,NaN NaN,NaN NaN,NaNcNaN,NaN NaN,NaN NaN,NaNcNaN,NaN NaN,NaN NaN,NaNcNaN,NaN NaN,NaN NaN,NaNcNaN,NaN NaN,NaN NaN,NaNcNaN,NaN NaN,NaN NaN,NaNz" fill="#dae6f1" fill-opacity="1"></path></g><g><title>&lt;Path&gt;</title><path d="MNaN,NaNcNaN,NaN NaN,NaN NaN,NaNcNaN,NaN NaN,NaN NaN,NaNcNaN,NaN NaN,NaN NaN,NaNcNaN,NaN NaN,NaN NaN,NaNcNaN,NaN NaN,NaN NaN,NaNcNaN,NaN NaN,NaN NaN,NaNz" fill="#dde8f2" fill-opacity="1"></path></g><g><title>&lt;Path&gt;</title><path d="MNaN,NaNcNaN,NaN NaN,NaN NaN,NaNcNaN,NaN NaN,NaN NaN,NaNcNaN,NaN NaN,NaN NaN,NaNcNaN,NaN NaN,NaN NaN,NaNcNaN,NaN NaN,NaN NaN,NaNcNaN,NaN NaN,NaN NaN,NaNz" fill="#e0eaf3" fill-opacity="1"></path></g><g><title>&lt;Path&gt;</title><path d="MNaN,NaNcNaN,NaN NaN,NaN NaN,NaNcNaN,NaN NaN,NaN NaN,NaNcNaN,NaN NaN,NaN NaN,NaNcNaN,NaN NaN,NaN NaN,NaNcNaN,NaN NaN,NaN NaN,NaNcNaN,NaN NaN,NaN NaN,NaNz" fill="#e0eaf3" fill-opacity="1"></path></g><g><title>&lt;Path&gt;</title><path d="MNaN,NaNcNaN,NaN NaN,NaN NaN,NaNcNaN,NaN NaN,NaN NaN,NaNcNaN,NaN NaN,NaN NaN,NaNcNaN,NaN NaN,NaN NaN,NaNcNaN,NaN NaN,NaN NaN,NaNcNaN,NaN NaN,NaN NaN,NaNz" fill="#e3ecf4" fill-opacity="1"></path></g><g><title>&lt;Path&gt;</title><path d="MNaN,NaNcNaN,NaN NaN,NaN NaN,NaNcNaN,NaN NaN,NaN NaN,NaNcNaN,NaN NaN,NaN NaN,NaNcNaN,NaN NaN,NaN NaN,NaNcNaN,NaN NaN,NaN NaN,NaNcNaN,NaN NaN,NaN NaN,NaNz" fill="#e5eef5" fill-opacity="1"></path></g><g><title>&lt;Path&gt;</title><path d="MNaN,NaNcNaN,NaN NaN,NaN NaN,NaNcNaN,NaN NaN,NaN NaN,NaNcNaN,NaN NaN,NaN NaN,NaNcNaN,NaN NaN,NaN NaN,NaNcNaN,NaN NaN,NaN NaN,NaNcNaN,NaN NaN,NaN NaN,NaNz" fill="#e8f0f6" fill-opacity="1"></path></g><g><title>&lt;Path&gt;</title><path d="MNaN,NaNcNaN,NaN NaN,NaN NaN,NaNcNaN,NaN NaN,NaN NaN,NaNcNaN,NaN NaN,NaN NaN,NaNcNaN,NaN NaN,NaN NaN,NaNcNaN,NaN NaN,NaN NaN,NaNcNaN,NaN NaN,NaN NaN,NaNz" fill="#e8f0f6" fill-opacity="1"></path></g><g><title>&lt;Path&gt;</title><path d="MNaN,NaNcNaN,NaN NaN,NaN NaN,NaNcNaN,NaN NaN,NaN NaN,NaNcNaN,NaN NaN,NaN NaN,NaNcNaN,NaN NaN,NaN NaN,NaNcNaN,NaN NaN,NaN NaN,NaNcNaN,NaN NaN,NaN NaN,NaNz" fill="#ebf2f7" fill-opacity="1"></path></g><g><title>&lt;Path&gt;</title><path d="MNaN,NaNcNaN,NaN NaN,NaN NaN,NaNcNaN,NaN NaN,NaN NaN,NaNcNaN,NaN NaN,NaN NaN,NaNcNaN,NaN NaN,NaN NaN,NaNcNaN,NaN NaN,NaN NaN,NaNcNaN,NaN NaN,NaN NaN,NaNz" fill="#eef4f8" fill-opacity="1"></path></g><g><title>&lt;Path&gt;</title><path d="MNaN,NaNcNaN,NaN NaN,NaN NaN,NaNcNaN,NaN NaN,NaN NaN,NaNcNaN,NaN NaN,NaN NaN,NaNcNaN,NaN NaN,NaN NaN,NaNcNaN,NaN NaN,NaN NaN,NaNcNaN,NaN NaN,NaN NaN,NaNz" fill="#f1f5fa" fill-opacity="1"></path></g><g><title>&lt;Path&gt;</title><path d="MNaN,NaNcNaN,NaN NaN,NaN NaN,NaNcNaN,NaN NaN,NaN NaN,NaNcNaN,NaN NaN,NaN NaN,NaNcNaN,NaN NaN,NaN NaN,NaNcNaN,NaN NaN,NaN NaN,NaNcNaN,NaN NaN,NaN NaN,NaNz" fill="#f4f7fb" fill-opacity="1"></path></g><g><title>&lt;Path&gt;</title><path d="MNaN,NaNcNaN,NaN NaN,NaN NaN,NaNcNaN,NaN NaN,NaN NaN,NaNcNaN,NaN NaN,NaN NaN,NaNcNaN,NaN NaN,NaN NaN,NaNcNaN,NaN NaN,NaN NaN,NaNcNaN,NaN NaN,NaN NaN,NaNz" fill="#f4f7fb" fill-opacity="1"></path></g><g><title>&lt;Path&gt;</title><path d="MNaN,NaNcNaN,NaN NaN,NaN NaN,NaNcNaN,NaN NaN,NaN NaN,NaNcNaN,NaN NaN,NaN NaN,NaNcNaN,NaN NaN,NaN NaN,NaNcNaN,NaN NaN,NaN NaN,NaNcNaN,NaN NaN,NaN NaN,NaNz" fill="#f6f9fc" fill-opacity="1"></path></g><g><title>&lt;Path&gt;</title><path d="MNaN,NaNcNaN,NaN NaN,NaN NaN,NaNcNaN,NaN NaN,NaN NaN,NaNcNaN,NaN NaN,NaN NaN,NaNcNaN,NaN NaN,NaN NaN,NaNcNaN,NaN NaN,NaN NaN,NaNcNaN,NaN NaN,NaN NaN,NaNz" fill="#f9fbfd" fill-opacity="1"></path></g><g><title>&lt;Path&gt;</title><path d="M41.5043,42.7801v0h0.33c0,-0.183 -0.148,-0.331 -0.33,-0.331c-0.183,0 -0.331,0.149 -0.331,0.331c0,0.183 0.148,0.33 0.331,0.33c0.182,0 0.33,-0.147 0.33,-0.33z" fill="#fcfdfe" fill-opacity="1"></path></g><g><title>&lt;Path&gt;</title><path d="M155.3645,4.7278l23.613,71.942c2.68,7.887 3.318,8.353 8.934,8.82v3.711c-4.594,-0.119 -9.19,-0.349 -13.913,-0.349c-4.848,0 -9.062,0.23 -14.422,0.349v-3.711c4.342,0 7.147,-0.119 7.147,-3.254c0,-1.271 -0.509,-2.898 -0.891,-4.292l-5.62,-19.027h-23.994l-5.998,16.94c-0.64,1.74 -1.405,4.177 -1.405,5.684c0,3.244 2.679,3.601 6.638,3.949v3.711c-3.83,-0.119 -7.403,-0.349 -11.109,-0.349c-3.698,0 -7.273,0.23 -10.973,0.349l-0.001,-3.601c7.022,-0.458 8.807,-4.991 12.892,-15.66l24.251,-65.212zM149.1105,22.1348l-11.233,32.14h20.808z" fill="#005896" fill-opacity="1"></path></g><g><title>&lt;Path&gt;</title><path d="M229.2347,73.6494c-3.192,5.341 -7.276,9.052 -13.402,9.052c-10.977,-0.001 -15.957,-12.066 -15.957,-25.176c0.001,-10.91 3.959,-22.513 13.149,-22.513c2.808,0 5.36,1.394 6.254,4.41c0.381,1.508 0.381,3.133 0.64,4.641c0.125,1.043 0.636,4.525 5.485,4.525c2.554,0 6.637,-1.509 6.637,-5.569c0,-5.686 -7.786,-12.067 -18.378,-12.067c-15.062,-0.001 -25.146,12.761 -25.146,31.33c0,6.611 0.895,17.174 8.68,23.317c3.573,2.906 8.805,4.643 14.041,4.643c13.276,0 18.634,-9.278 21.952,-14.967z" fill="#005896" fill-opacity="1"></path></g><g><title>&lt;Path&gt;</title><path d="M279.0206,73.6494c-3.192,5.341 -7.279,9.052 -13.404,9.052c-10.977,-0.001 -15.955,-12.066 -15.955,-25.176c0,-10.91 3.956,-22.513 13.149,-22.513c2.806,0 5.36,1.394 6.25,4.41c0.385,1.508 0.385,3.133 0.641,4.641c0.127,1.043 0.637,4.525 5.488,4.525c2.552,0 6.637,-1.509 6.637,-5.569c0,-5.686 -7.786,-12.067 -18.382,-12.067c-15.06,-0.001 -25.142,12.761 -25.142,31.33c0,6.611 0.892,17.174 8.68,23.317c3.573,2.906 8.805,4.643 14.038,4.643c13.277,0 18.637,-9.278 21.954,-14.967z" fill="#005896" fill-opacity="1"></path></g><g><title>&lt;Path&gt;</title><path d="M333.2701,75.3924c-2.17,4.522 -7.019,14.383 -22.207,14.383c-14.939,0 -23.23,-11.022 -23.23,-28.307c0,-6.612 1.019,-14.272 4.848,-20.538c5.106,-8.237 13.146,-10.095 18.51,-10.095c5.613,0 10.846,1.858 14.548,4.99c7.019,6.266 7.019,15.087 7.149,22.045h-33.699c0.256,5.803 0.641,14.504 6.768,20.773c1.657,1.736 4.594,4.296 10.081,4.297c7.532,0 11.488,-6.157 13.275,-8.943zM321.3991,53.8094c-0.127,-6.73 -0.511,-18.563 -10.208,-18.563c-9.959,0 -11.361,11.95 -12.002,18.563z" fill="#005896" fill-opacity="1"></path></g><g><title>&lt;Path&gt;</title><path d="M360.589,65.6468c6.123,2.899 10.081,5.336 10.081,10.903c0,4.872 -3.829,9.406 -10.977,9.406c-3.829,0 -7.019,-1.399 -9.316,-3.72c-3.573,-3.711 -3.958,-8.701 -4.211,-12.529h-4.978v0v16.587c5.106,1.865 10.081,3.72 17.481,3.72c16.983,0 21.698,-9.98 21.698,-17.174c0.001,-9.746 -5.867,-13.575 -11.479,-16.476c-3.701,-1.859 -7.531,-3.366 -11.233,-5.221c-2.816,-1.394 -6.639,-3.25 -6.639,-8.238c0.001,-3.135 2.169,-7.893 9.956,-7.893c10.082,0 10.978,7.893 11.489,12.185l4.718,-0.001v0v-14.155c-5.357,-1.045 -10.978,-2.088 -16.207,-2.088c-8.17,-0.001 -12.382,2.669 -14.169,4.293c-3.316,2.903 -5.231,7.659 -5.231,12.184c0,9.282 7.91,12.997 12.253,15.083z" fill="#005896" fill-opacity="1"></path></g><g><title>&lt;Path&gt;</title><path d="M407.3956,65.6468c6.123,2.899 10.081,5.336 10.081,10.903c0,4.872 -3.831,9.406 -10.978,9.406c-3.83,0 -7.018,-1.399 -9.314,-3.72c-3.573,-3.711 -3.956,-8.701 -4.213,-12.529h-4.981v0v16.587c5.109,1.865 10.091,3.72 17.485,3.72c16.981,0 21.698,-9.98 21.698,-17.174c0,-9.746 -5.868,-13.575 -11.48,-16.476c-3.702,-1.859 -7.53,-3.366 -11.232,-5.221c-2.815,-1.394 -6.636,-3.25 -6.636,-8.238c0,-3.135 2.166,-7.893 9.953,-7.893c10.081,0 10.977,7.893 11.489,12.185l4.717,-0.001v0v-14.155c-5.356,-1.045 -10.978,-2.088 -16.206,-2.088c-8.171,-0.001 -12.385,2.669 -14.167,4.293c-3.318,2.903 -5.238,7.659 -5.238,12.184c0.001,9.282 7.916,12.997 12.258,15.083z" fill="#005896" fill-opacity="1"></path></g><g><title>&lt;Path&gt;</title><path d="M434.6686,6.2361c4.981,0.232 9.962,0.466 14.807,0.466c1.28,0 4.981,-0.117 8.683,-0.234c3.701,-0.114 7.404,-0.232 8.811,-0.232c4.972,0 14.798,0.118 20.93,6.497c3.319,3.25 4.845,7.893 4.844,12.418c0,14.272 -13.526,18.68 -18.124,20.073c5.62,0.812 11.872,1.741 17.366,7.077c4.205,3.946 6.381,9.285 6.38,14.738c0,4.523 -1.407,8.353 -3.318,11.367c-6.763,10.566 -18.381,10.795 -26.041,10.795c-2.805,0 -17.099,-0.349 -20.29,-0.349c-4.598,0 -9.323,0.12 -14.048,0.349v-3.831c6.518,-0.346 8.043,-1.737 8.171,-7.426v-58.131c-0.128,-6.497 -0.128,-9.399 -8.171,-9.746zM462.5006,43.8311c6.25,-0.232 17.483,-0.696 17.483,-17.173c0,-14.852 -10.72,-16.129 -17.1,-16.129c-7.915,0 -7.915,3.712 -7.915,7.428v25.874zM454.9686,48.1261v29.818c0,6.385 3.061,6.96 9.57,6.961c3.7,0 7.915,-0.229 11.872,-2.322c6.124,-3.245 8.674,-9.86 8.674,-16.357c0,-17.405 -14.423,-18.1 -23.48,-18.1z" fill="#6b727a" fill-opacity="1"></path></g><g><title>&lt;Path&gt;</title><path d="M536.7538,45.6884c0,-3.134 0,-10.676 -8.427,-10.676c-3.19,0 -5.74,1.508 -7.149,3.482c-1.142,1.625 -1.142,2.902 -1.142,4.525c0,1.161 -0.127,5.686 -6.261,5.687c-2.294,0 -5.867,-1.163 -5.868,-4.993c0,-4.988 6.636,-12.414 20.803,-12.414c4.342,0 9.57,0.813 13.025,2.903c6.124,3.713 6.124,10.211 6.124,13.807v31.676c0,1.042 0.129,3.254 2.422,3.255c1.535,0 2.815,-0.815 3.957,-1.519l2.551,3.025c-3.191,2.314 -7.147,5.101 -11.864,5.101c-4.853,0 -7.404,-2.787 -8.043,-7.192c-3.574,2.787 -9.323,7.192 -16.599,7.192c-9.058,0 -15.181,-6.964 -15.181,-15.199c0,-5.686 2.806,-11.489 9.569,-15.2c6.124,-3.365 14.425,-4.179 22.083,-4.874zM536.7538,57.7554c-8.3,1.045 -20.418,2.552 -20.419,14.04c0,6.035 4.077,10.56 9.953,10.56c4.342,0 7.915,-2.322 10.466,-4.064z" fill="#6b727a" fill-opacity="1"></path></g><g><title>&lt;Path&gt;</title><path d="M561.0936,38.3775c4.981,0.117 7.029,0.464 7.147,5.106v34.808c-0.118,5.224 -0.502,6.493 -7.147,6.732v4.058c3.829,-0.229 7.915,-0.466 11.745,-0.466c4.469,0 8.939,0.237 13.409,0.466v-4.058c-6.517,-0.119 -6.518,-1.508 -6.645,-10.327v-30.284c2.943,-2.437 7.147,-6.15 13.024,-6.15c8.044,0 8.171,7.542 8.3,10.908v27.266c-0.256,7.773 -0.768,8.348 -6.646,8.816v3.829c3.959,-0.229 8.044,-0.466 12.001,-0.466c4.341,0 8.171,0.237 12.769,0.466v-3.829c-6.389,-0.111 -6.901,-1.509 -6.773,-7.309v-31.79c-0.128,-3.599 -0.247,-8.589 -5.101,-11.951c-2.805,-1.974 -6.635,-2.786 -9.826,-2.786c-7.657,-0.001 -13.535,4.409 -18.251,8.006v-8.354v0h-3.958c-0.639,0.347 -1.279,0.695 -1.92,0.928c-3.573,1.858 -8.162,2.206 -12.128,2.436z" fill="#6b727a" fill-opacity="1"></path></g><g><title>&lt;Path&gt;</title><path d="M624.288,7.0494c6.635,0 6.634,1.626 6.764,9.051v57.319c-0.129,10.79 -0.13,12.18 -6.893,12.07v3.83c4.342,-0.238 8.555,-0.467 12.898,-0.467c3.957,0 7.521,0.119 12.119,0.467v-3.602c-5.74,-0.118 -6.636,-1.626 -6.636,-7.426v-19.491c2.421,-0.115 2.933,0.116 4.726,1.857l13.399,18.214c1.408,1.975 2.55,3.484 2.55,4.645c0,2.083 -2.806,2.201 -4.077,2.201v3.602c3.693,-0.238 7.267,-0.467 11.735,-0.467c3.958,0 8.428,0.229 13.529,0.467v-3.602c-3.574,0 -5.612,-0.347 -8.547,-4.525c-5.62,-7.889 -13.024,-17.983 -20.547,-28.078l12.632,-12.068c3.702,-3.482 5.996,-4.874 11.49,-5.336l0.001,-3.714c-3.703,0.232 -7.533,0.466 -11.236,0.466c-3.829,0 -7.786,-0.234 -11.488,-0.466v3.713c1.792,-0.116 5.11,0.001 5.11,2.206c0,1.157 -1.664,3.131 -2.816,4.407c-3.18,3.483 -11.352,11.836 -13.399,12.88c-1.271,0.698 -2.166,0.698 -3.062,0.581v-55.464v0h-3.958c-0.768,0.349 -1.525,0.814 -2.422,1.159c-3.317,1.277 -9.569,1.626 -11.872,1.741z" fill="#6b727a" fill-opacity="1"></path></g><g><title>&lt;Path&gt;</title><path d="M37.5452,6.6921c14.279,-3.045 29.739,0.969 40.833,12.061c17.412,17.41 17.567,45.537 0.16,62.943l-0.941,0.941v0l15.816,-0.036v0v6.426v0h-26.771v0l-0.002,-26.775v0h6.423v0l-0.014,15.774c0.09,-0.118 0.787,-0.772 0.787,-0.772c14.902,-14.901 14.902,-39.061 0,-53.962c-9.844,-9.843 -23.728,-13.184 -36.314,-10.022z" fill="#6b727a" fill-opacity="1"></path></g><g><title>&lt;Path&gt;</title><path d="M56.3392,93.7696c-14.284,3.053 -29.769,-0.959 -40.868,-12.056c-17.411,-17.409 -17.567,-45.538 -0.159,-62.945l0.94,-0.939v0l-15.815,0.033v0v-6.422v0h26.771v0l0.002,26.774v0h-6.423v0l0.013,-15.776c-0.089,0.119 -0.785,0.772 -0.785,0.772c-14.901,14.903 -14.901,39.062 0,53.961c9.843,9.844 23.729,13.189 36.313,10.026z" fill="#005896" fill-opacity="1"></path></g></g></svg>