<?xml version="1.0" encoding="UTF-8"?>
<svg id="SVGDoc" width="649" height="178" xmlns="http://www.w3.org/2000/svg" version="1.1" xmlns:xlink="http://www.w3.org/1999/xlink" xmlns:avocode="https://avocode.com/" viewBox="0 0 649 178"><defs></defs><desc>Generated with Avocode.</desc><g><g><title>&lt;Path&gt;</title><path d="M55.507,75.7246l-0.058,-16.841l67.787,-0.232c5.331,-0.019 9.635,-4.34 9.622,-9.68c-0.023,-5.321 -4.353,-9.625 -9.675,-9.625l-62.658,0.232c-11.675,0.036 -21.261,9.393 -21.216,21.126l0.04,13.305c0.031,11.715 9.666,21.271 21.372,21.235l62.65,-0.215l-0.072,-19.537zM60.405,0.8246c-32.887,0.089 -59.72,27.109 -59.604,60.023l0.045,13.288c0.111,32.895 27.123,59.738 60.005,59.612l62.648,-0.214l-0.075,-22.36l-62.644,0.215c-20.609,0.071 -37.509,-16.734 -37.58,-37.325l-0.045,-13.287c-0.066,-20.609 16.734,-37.522 37.326,-37.593l62.644,-0.196c14.488,-0.053 26.855,11.661 26.904,26.163c0.049,13.591 -10.296,25.895 -26.73,26.342l20.457,19.573c14.096,-7.09 29.954,-22.092 29.874,-45.272c-0.076,-23.181 -20.454,-49.22 -47.286,-49.13z" fill="#ff9b00" fill-opacity="1"></path></g><g><title>&lt;Path&gt;</title><path d="M148.7606,128.801c1.139,-9.055 5.796,-12.466 12.399,-12.484c7.3,-0.017 11.095,4.233 11.327,12.413zM177.2236,149.517c-3.692,1.375 -9.429,2.447 -13.903,2.483c-8.644,0.017 -14.501,-2.786 -14.734,-16.395l32.378,-0.107c0.482,-1.947 0.567,-4.75 0.563,-5.537c-0.049,-13.322 -6.384,-21.18 -20.292,-21.144c-14.002,0.071 -21.752,8.929 -21.69,25.556c0.063,19.538 8.729,25.056 23.226,25.002c6.223,-0.017 11.362,-1.107 16.126,-3.161z" fill="#231f20" fill-opacity="1"></path></g><g><title>&lt;Path&gt;</title><path d="M219.728,158.2146v0l-12.6,-17.948v0l-12.488,18.037v0l-10.795,0.035v0l18.399,-24.948v0l-17.587,-23.681v0l10.796,-0.035v0l12.117,17.465v0l11.703,-17.537v0l10.5,-0.035v0l-17.426,23.787v0l18.266,24.824v0z" fill="#231f20" fill-opacity="1"></path></g><g><title>&lt;Path&gt;</title><path d="M245.2433,117.9787c3.599,-0.982 6.023,-1.965 11.662,-1.983c10.804,-0.035 12.372,8.519 12.403,17.252c0.04,10.697 -2.652,18.681 -13.251,18.716c-3.894,0.018 -6.908,-0.464 -10.702,-1.411zM245.3733,156.3747c0.089,-0.089 0.196,-0.089 0.295,-0.196c3.5,1.946 7.782,2.893 11.773,2.875c15.461,-0.035 21.346,-11.733 21.309,-26.324c-0.043,-12.644 -4.955,-24.288 -19.046,-24.234c-5.263,0.017 -9.241,0.999 -13.992,4.428h-0.478l-0.022,-3.41l-9.041,0.035l0.228,68.061l9.05,-0.036z" fill="#231f20" fill-opacity="1"></path></g><g><title>&lt;Path&gt;</title><path d="M309.9821,116.5851c-7.488,-0.071 -13.028,1.019 -16.033,2.394l0.129,38.985v0l-9.041,0.036v0l-0.155,-48.629v0l9.027,-0.019v0l0.013,3.787v0h0.505c4.643,-3.126 9.599,-5.091 15.524,-4.804z" fill="#231f20" fill-opacity="1"></path></g><g><title>&lt;Path&gt;</title><path d="M322.0719,128.2111c1.139,-9.037 5.791,-12.447 12.399,-12.483c7.299,-0.018 11.095,4.25 11.313,12.412zM350.5219,148.9271c-3.684,1.375 -9.426,2.465 -13.886,2.483c-8.653,0.018 -14.496,-2.768 -14.742,-16.377l32.378,-0.107c0.486,-1.946 0.576,-4.785 0.576,-5.554c-0.058,-13.323 -6.398,-21.18 -20.315,-21.127c-14.001,0.036 -21.738,8.911 -21.684,25.538c0.071,19.556 8.741,25.056 23.22,25.02c6.233,-0.035 11.372,-1.107 16.127,-3.178z" fill="#231f20" fill-opacity="1"></path></g><g><title>&lt;Path&gt;</title><path d="M363.8084,148.696c3.402,1.25 9.729,2.59 14.005,2.571c6.118,-0.017 10.89,-1.982 10.872,-6.839c-0.013,-5.252 -5.38,-6.698 -11.603,-8.233c-7.872,-1.822 -14.6,-5.305 -14.627,-14.252c-0.036,-9.911 7.229,-13.822 18.806,-13.858c4.469,0 10.112,1.339 13.907,2.59l-1.616,7.482c-4.473,-1.643 -9.045,-2.59 -12.658,-2.571c-6.116,0 -9.412,2.16 -9.398,6.054c0.018,5.143 5.853,6.107 11.095,7.536c7.79,2.018 15.091,4.626 15.122,14.537c0.04,10.501 -8.8,14.912 -20.154,14.948c-4.389,0 -11.099,-1.125 -15.287,-2.483z" fill="#231f20" fill-opacity="1"></path></g><g><title>&lt;Path&gt;</title><path d="M405.9957,148.5524c3.406,1.251 9.72,2.59 14.005,2.572c6.117,-0.018 10.881,-1.982 10.877,-6.84c-0.023,-5.251 -5.38,-6.697 -11.618,-8.233c-7.871,-1.803 -14.599,-5.286 -14.626,-14.233c-0.018,-9.912 7.241,-13.841 18.818,-13.877c4.47,-0.017 10.127,1.322 13.908,2.572l-1.616,7.501c-4.478,-1.643 -9.063,-2.59 -12.662,-2.59c-6.116,0.018 -9.416,2.179 -9.403,6.072c0.018,5.143 5.858,6.108 11.1,7.537c7.795,2.018 15.095,4.607 15.126,14.537c0.044,10.5 -8.799,14.912 -20.158,14.948c-4.398,0.017 -11.099,-1.143 -15.292,-2.483z" fill="#231f20" fill-opacity="1"></path></g><g><title>&lt;Path&gt;</title><path d="M456.2411,117.2642c3.304,-0.983 5.822,-1.965 11.068,-1.982c11.675,-0.036 12.956,8.518 12.997,17.269c0.031,10.698 -2.858,18.662 -13.845,18.699c-3.3,0.035 -6.233,-0.465 -10.113,-1.411zM447.3251,154.5352c4.366,1.429 11.97,3.84 19.734,3.822c16.042,-0.054 22.717,-11.751 22.672,-26.342c-0.049,-12.626 -5.139,-24.27 -19.234,-24.216c-4.764,0 -8.737,0.982 -13.791,4.107h-0.483l-0.085,-23.519l-9.045,0.999z" fill="#231f20" fill-opacity="1"></path></g><g><title>&lt;Path&gt;</title><path d="M526.7386,148.8201c-3.79,0.875 -8.746,1.965 -14.287,1.983c-4.572,0.035 -7.202,-1.518 -7.219,-6.572c-0.014,-3.215 1.152,-6.429 7.46,-6.447l14.006,-0.054zM526.3866,131.8011c-4.375,-1.053 -9.622,-1.411 -13.314,-1.411c-10.711,0.036 -16.917,4.054 -16.877,14.055c0.022,10.019 6.765,13.787 15.006,13.751c5.354,-0.017 10.609,-1.482 15.077,-4.411h0.478c0.299,2.715 3.121,4.358 6.327,4.34c3.21,0 5.447,-0.679 9.134,-2.25l-0.013,-5.447l-6.42,0.018l-0.09,-26.931c-0.045,-11.68 -7.527,-15.93 -18.715,-15.877c-6.613,0.018 -12.162,1 -16.997,2.964l1.468,7.002c4.858,-1.483 8.251,-2.466 14.095,-2.483c7.773,-0.036 11.086,3.071 11.117,9.983l0.028,6.697z" fill="#231f20" fill-opacity="1"></path></g><g><title>&lt;Path&gt;</title><path d="M559.1083,117.9073v0l0.129,39.164v0l-9.045,0.018v0l-0.161,-48.612v0l9.037,-0.017v0l0.022,3.785v0h0.491c5.032,-3.322 9.992,-4.786 15.332,-4.821c9.924,-0.036 15.684,5.304 15.72,16.001l0.103,33.539v0l-9.037,0.036v0l-0.107,-31.111c-0.022,-6.232 -1.785,-10.983 -9.371,-10.946c-5.836,0 -10.006,1.66 -13.113,2.964z" fill="#231f20" fill-opacity="1"></path></g><g><title>&lt;Path&gt;</title><path d="M611.8228,127.6398v0l8.662,-0.036v0l14.711,-19.412v0l10.599,-0.018v0l-17.435,22.413v0l20.417,26.181v0l-10.987,0.053v0l-17.082,-21.84v0l-8.858,0.035v0l0.075,21.877v0l-9.045,0.035v0l-0.223,-68.059v0l9.041,-1.001v0z" fill="#231f20" fill-opacity="1"></path></g></g></svg>