<?xml version="1.0" encoding="UTF-8"?>
<svg id="SVGDoc" width="631" height="159" xmlns="http://www.w3.org/2000/svg" version="1.1" xmlns:xlink="http://www.w3.org/1999/xlink" xmlns:avocode="https://avocode.com/" viewBox="0 0 631 159"><defs></defs><desc>Generated with Avocode.</desc><g><g><title>&lt;Path&gt;</title><path d="M101.5062,6.825v0h-25.105v0l-75.719,75.623v0h25.095v0z" fill="#231f20" fill-opacity="1"></path></g><g><title>&lt;Path&gt;</title><path d="M69.8987,6.825v0l-34.589,34.676v0l-34.628,-34.676v0z" fill="#ec1c24" fill-opacity="1"></path></g><g><title>&lt;Path&gt;</title><path d="M32.2897,82.448v0l34.609,-34.666v0l34.608,34.666v0z" fill="#ec1c24" fill-opacity="1"></path></g><g><title>&lt;Path&gt;</title><path d="M432.5374,47.1934c2.21,1.496 4.005,3.445 5.5,5.866c1.447,2.441 2.171,5.374 2.171,8.79c0,3.521 -0.762,6.59 -2.335,9.185c-1.505,2.605 -3.502,4.737 -5.934,6.397c-2.364,1.64 -5.065,2.865 -8.056,3.724c-3.01,0.868 -6.117,1.293 -9.291,1.293h-35.824v-3.792c0.849,-0.106 2.103,-0.212 3.724,-0.453c1.65,-0.223 2.817,-0.512 3.503,-0.83c1.09,-0.492 1.91,-1.148 2.353,-1.978c0.454,-0.849 0.666,-1.949 0.666,-3.242v-54.387c0,-1.197 -0.174,-2.277 -0.598,-3.174c-0.366,-0.936 -1.167,-1.689 -2.421,-2.258c-1.071,-0.521 -2.229,-0.926 -3.571,-1.206c-1.292,-0.309 -2.373,-0.463 -3.28,-0.531v-3.782h34.879c2.74,0 5.297,0.27 7.757,0.791c2.46,0.521 4.805,1.477 7.082,2.827c2.064,1.245 3.801,2.904 5.142,5.056c1.399,2.132 2.055,4.737 2.055,7.796c0,2.662 -0.501,5.027 -1.467,7.091c-0.935,2.065 -2.286,3.888 -4.052,5.384c-1.611,1.408 -3.502,2.624 -5.596,3.57c-2.103,0.994 -4.428,1.765 -6.85,2.277v0.473c2.171,0.26 4.573,0.781 7.227,1.64c2.749,0.83 5.113,1.987 7.216,3.473zM400.4194,40.2944h6.753c2.885,0 5.403,-0.385 7.449,-1.148c2.142,-0.743 3.792,-1.842 5.036,-3.338c1.37,-1.534 2.277,-3.194 2.779,-5.017c0.502,-1.804 0.791,-3.946 0.791,-6.435c0,-4.178 -1.196,-7.458 -3.425,-9.784c-2.296,-2.373 -5.856,-3.56 -10.796,-3.56c-1.12,0 -2.538,0.029 -4.265,0.106c-1.718,0.029 -3.155,0.077 -4.322,0.126zM422.8414,73.5814c2.808,-3.087 4.197,-7.622 4.197,-13.633c0,-4.477 -1.524,-8.162 -4.525,-11.037c-2.962,-2.876 -7.275,-4.333 -12.861,-4.333c-2.238,0 -4.168,0.039 -5.731,0.107c-1.621,0.048 -2.759,0.106 -3.502,0.115v26.658c0,2.248 0.897,3.937 2.691,5.095c1.795,1.08 4.323,1.669 7.574,1.669c5.278,0 9.359,-1.524 12.157,-4.641zM208.3224,78.4254c1.592,0.125 2.943,0.212 4.081,0.231v3.792h-39.433v-3.792c3.242,-0.067 5.867,-0.328 7.844,-0.801c1.998,-0.501 3.02,-1.254 3.02,-2.238c0,-0.531 -0.453,-1.631 -1.35,-3.3c-0.907,-1.679 -2.104,-3.541 -3.512,-5.596c-1.583,-2.267 -3.464,-4.93 -5.625,-8.018c-2.191,-3.068 -4.332,-6.02 -6.474,-8.808c-3.464,4.12 -7.439,9.059 -11.858,14.868c-4.428,5.837 -6.667,9.233 -6.667,10.265c0,1.187 0.589,2.055 1.814,2.567c1.196,0.569 3.879,0.926 7.989,1.061v3.792h-31.444v-3.792c1.023,-0.067 2.345,-0.203 3.927,-0.395c1.601,-0.194 2.904,-0.541 3.956,-1.004c2.036,-0.984 3.724,-2.055 4.94,-3.184c1.292,-1.167 2.508,-2.537 3.772,-4.101c2.537,-3.126 5.789,-7.033 9.735,-11.712c3.946,-4.66 7.477,-8.906 10.507,-12.746c-2.306,-3.02 -5.21,-6.86 -8.799,-11.491c-3.531,-4.64 -7.323,-9.58 -11.376,-14.858c-1.717,-2.277 -3.039,-3.83 -4.003,-4.757c-0.956,-0.936 -2.239,-1.746 -3.889,-2.393c-0.945,-0.415 -2.248,-0.723 -3.946,-0.954c-1.688,-0.232 -3.001,-0.377 -3.985,-0.454v-3.792h38.979v3.792c-2.286,0.077 -4.669,0.328 -7.159,0.762c-2.47,0.444 -3.724,1.158 -3.724,2.055c0,0.705 0.483,1.862 1.505,3.56c0.984,1.698 2.132,3.493 3.484,5.403c1.36,1.997 2.923,4.178 4.611,6.629c1.698,2.402 3.811,5.181 6.252,8.346c4.506,-5.413 8.336,-10.363 11.549,-14.695c3.242,-4.361 4.892,-7.226 4.892,-8.529c0,-1.148 -0.772,-1.987 -2.21,-2.518c-1.514,-0.521 -4.004,-0.849 -7.535,-1.013v-3.792h31.415v3.792c-1.004,0.048 -2.306,0.173 -3.898,0.405c-1.611,0.222 -2.943,0.569 -4.004,1.003c-2.045,0.869 -3.589,1.844 -4.612,2.866c-1.023,1.023 -2.373,2.538 -4.071,4.467c-3.156,3.667 -6.079,7.082 -8.761,10.333c-2.625,3.184 -5.857,7.092 -9.658,11.743c3.222,4.023 6.744,8.635 10.604,13.787c3.916,5.152 7.66,10.082 11.201,14.761c1.235,1.593 2.634,3.127 4.207,4.564c1.62,1.419 2.875,2.383 3.878,2.972c0.955,0.472 2.21,0.8 3.831,0.917zM492.7724,72.1244c0,3.058 2.923,6.812 9.551,6.812v2.624c-1.679,0.753 -3.473,1.245 -4.814,1.64c-1.457,0.348 -3,0.56 -4.737,0.56c-3.068,0 -5.509,-0.656 -7.372,-1.959c-1.775,-1.302 -2.981,-3.434 -3.473,-5.895h-0.347c-2.538,2.538 -7.902,7.854 -18.757,7.854c-4.351,0 -7.901,-1.196 -10.719,-3.618c-2.798,-2.422 -4.236,-6.3 -4.236,-9.446c0,-2.064 0.358,-3.869 0.966,-5.451c3.232,-8.355 15.659,-10.517 21.949,-12.533c5.384,-1.727 9.021,-2.924 10.932,-3.831v-5.287c0,-4.525 -2.036,-11.298 -11.115,-11.298c-4.969,0 -7.69,1.968 -8.298,2.576c0,0.695 0.492,2.152 0.869,3.531c0.357,1.399 1.708,8.404 -6.763,8.404c-1.94,0 -5.645,-1.312 -5.722,-5.943c-0.01,-1.641 0.646,-3.396 1.92,-4.901c1.302,-1.486 2.972,-2.789 4.998,-3.976c8.857,-5.084 19.924,-3.454 22.374,-2.962c12.601,2.432 12.794,13.141 12.794,16.721zM481.7154,53.3684c-3.339,0.897 -6.156,1.737 -8.684,2.586c-2.47,0.868 -4.805,1.91 -6.966,3.184c-1.949,1.225 -3.512,2.663 -4.66,4.322c-1.138,1.631 -1.698,3.589 -1.698,5.866c0,2.933 0.859,5.133 2.586,6.503c1.669,1.399 3.84,2.065 6.445,2.065c2.779,0 5.258,-0.598 7.362,-1.824c2.141,-1.216 4.119,-2.846 5.615,-4.505zM261.6964,72.1244c0,3.058 2.894,6.812 9.561,6.812v2.624c-1.669,0.753 -3.464,1.245 -4.853,1.64c-1.399,0.348 -2.972,0.56 -4.708,0.56c-3.097,0 -5.529,-0.656 -7.352,-1.959c-1.833,-1.302 -2.991,-3.434 -3.474,-5.895h-0.376c-2.557,2.538 -7.873,7.854 -18.717,7.854c-4.371,0 -7.941,-1.196 -10.768,-3.618c-2.798,-2.422 -4.197,-6.3 -4.197,-9.446c0,-2.064 0.309,-3.869 0.926,-5.451c3.242,-8.355 15.669,-10.517 21.95,-12.533c5.384,-1.727 9.04,-2.924 10.932,-3.831v-5.287c0,-4.525 -2.027,-11.298 -11.125,-11.298c-4.92,0 -7.67,1.968 -8.268,2.576c0,0.695 0.473,2.152 0.868,3.531c0.357,1.399 1.698,8.404 -6.764,8.404c-1.958,0 -5.653,-1.312 -5.702,-5.943c-0.009,-1.641 0.647,-3.396 1.92,-4.901c1.274,-1.486 2.924,-2.789 4.979,-3.976c8.828,-5.084 19.904,-3.454 22.374,-2.962c12.63,2.432 12.794,13.141 12.794,16.721zM250.6204,53.3684c-3.329,0.897 -6.156,1.737 -8.645,2.586c-2.499,0.868 -4.834,1.91 -6.986,3.184c-1.948,1.225 -3.54,2.663 -4.669,4.322c-1.129,1.631 -1.699,3.589 -1.699,5.866c0,2.933 0.869,5.133 2.567,6.503c1.708,1.399 3.879,2.065 6.484,2.065c2.798,0 5.239,-0.598 7.361,-1.824c2.113,-1.216 4.12,-2.846 5.587,-4.505zM303.2514,78.9364v3.512h-28.482v-3.512c3.802,0 8.77,-1.061 8.77,-5.461v-60.851c0,-3.233 -0.298,-8.028 -11.809,-8.028v-3.425l21.998,-0.791l0.83,0.791v72.304c0,4.4 4.814,5.461 8.693,5.461zM630.8094,78.9464v3.512h-16.247c0,0 -17.358,-24.266 -18.785,-26.273l-4.352,4.072v13.218c0,4.4 4.834,5.451 8.703,5.451v3.522h-28.53v-3.522c3.849,0 8.799,-1.051 8.799,-5.451v-60.851c0,-3.233 -0.308,-8.028 -11.819,-8.028v-3.415l22.017,-0.801l0.83,0.801v55.13c3.203,-3.03 15.514,-15.081 15.514,-15.081c0,0 3.754,-3.425 2.789,-5.538c-0.453,-0.984 -2.094,-2.363 -6.522,-2.363v-3.426h23.097v3.426c-5.441,0 -13.044,7.033 -13.044,7.033l-10.236,9.61c0,0 16.093,21.525 17.81,23.764c1.544,2.102 3.821,5.21 9.976,5.21zM364.9034,102.6034c0.926,0.415 2.152,0.675 3.618,0.965c1.419,0.261 2.663,0.434 3.551,0.531v3.54h-31.617v-3.54c1.235,-0.097 2.45,-0.184 3.618,-0.27c1.215,-0.145 2.277,-0.329 3.242,-0.551c1.205,-0.366 2.074,-0.984 2.537,-1.862c0.473,-0.917 0.714,-1.958 0.714,-3.155v-20.917l-0.386,-0.116c-0.637,0.637 -1.534,1.399 -2.663,2.19c-1.167,0.849 -2.383,1.534 -3.666,2.065c-1.563,0.753 -3.078,1.303 -4.564,1.727c-1.486,0.415 -3.261,0.608 -5.489,0.608c-3.571,0 -6.928,-0.656 -10.083,-1.997c-3.126,-1.322 -5.876,-3.194 -8.172,-5.683c-2.326,-2.402 -4.217,-5.384 -5.558,-8.896c-1.34,-3.56 -2.045,-7.448 -2.045,-11.655c0,-4.004 0.762,-7.651 2.373,-10.951c1.583,-3.309 3.686,-6.146 6.281,-8.606c2.509,-2.306 5.51,-4.158 8.983,-5.519c3.493,-1.351 6.966,-2.035 10.401,-2.035c2.576,0 4.834,0.192 6.84,0.684c2.007,0.415 3.677,0.946 5.133,1.525c1.206,0.492 2.441,1.071 3.695,1.794c1.216,0.714 2.104,1.216 2.606,1.467l5.007,-6.947l3.406,0.454c-0.154,2.653 -0.377,5.856 -0.627,9.715c-0.261,3.821 -0.396,7.188 -0.396,10.025v50.171c0,1.245 0.222,2.335 0.772,3.232c0.521,0.917 1.36,1.583 2.489,2.007zM350.5664,41.3084c-0.309,-0.907 -0.859,-1.872 -1.592,-2.962c-0.782,-1.081 -1.65,-2.017 -2.692,-2.837c-1.129,-0.859 -2.441,-1.573 -4.033,-2.132c-1.63,-0.589 -3.473,-0.849 -5.567,-0.849c-4.612,0 -8.5,2.142 -11.655,6.406c-3.106,4.332 -4.689,10.247 -4.689,17.782c0,2.943 0.28,5.663 0.936,8.075c0.588,2.422 1.631,4.67 3.145,6.774c1.409,1.987 3.204,3.598 5.384,4.795c2.151,1.177 4.93,1.756 8.23,1.756c2.885,0 5.297,-0.541 7.323,-1.621c1.968,-1.071 3.714,-2.345 5.21,-3.811zM568.1054,78.9364v3.522h-27.787v-3.522c3.879,0 7.999,-1.061 7.999,-5.442l0.029,-27.025c0,-7.805 -4.207,-11.664 -9.369,-11.664c-6.889,0 -11.115,4.216 -13.334,7.921v30.768c0,4.381 4.091,5.442 7.96,5.442v3.522h-27.787v-3.522c3.86,0 8.809,-1.061 8.809,-5.442l-0.077,-10.034v-22.895c0,-3.242 -1.573,-7.082 -9.861,-7.082v-3.02l20.203,-1.196l0.753,0.762v7.381h0.261c0.83,-0.849 8.336,-8.944 17.627,-8.944c6.484,0 9.774,1.669 12.331,4.708c2.711,3.281 3.521,7.304 3.521,12.552l-0.048,27.768c0,4.381 4.95,5.442 8.77,5.442z" fill="#231f20" fill-opacity="1"></path></g><g><title>&lt;Path&gt;</title><path d="M74.7135,136.1601c-0.29,0.019 -0.734,0.087 -1.312,0.203c-0.56,0.106 -1.071,0.308 -1.419,0.54c-0.376,0.212 -0.617,0.752 -0.782,1.515c-0.115,0.8 -0.202,1.736 -0.202,2.855v10.006c0,1.264 -0.27,2.373 -0.782,3.329c-0.54,0.964 -1.244,1.707 -2.112,2.306c-0.85,0.607 -1.737,1.031 -2.683,1.263c-0.955,0.241 -1.862,0.396 -2.721,0.396c-1.37,0 -2.614,-0.183 -3.705,-0.56c-1.061,-0.347 -1.958,-0.849 -2.72,-1.457c-0.704,-0.617 -1.254,-1.322 -1.631,-2.112c-0.357,-0.821 -0.55,-1.641 -0.55,-2.49v-13.594c0,-0.377 -0.058,-0.705 -0.203,-0.965c-0.105,-0.26 -0.347,-0.492 -0.733,-0.714c-0.26,-0.145 -0.607,-0.232 -1.041,-0.367c-0.415,-0.067 -0.763,-0.116 -1.043,-0.154v-1.158h9.591v1.158c-0.299,0.019 -0.714,0.077 -1.148,0.145c-0.454,0.087 -0.791,0.164 -0.994,0.231c-0.396,0.145 -0.618,0.367 -0.743,0.656c-0.125,0.319 -0.212,0.618 -0.212,1.013v12.678c0,0.608 0.106,1.245 0.212,1.92c0.135,0.695 0.405,1.303 0.801,1.901c0.414,0.598 1.013,1.08 1.717,1.467c0.734,0.375 1.727,0.54 3,0.54c1.168,0 2.191,-0.165 2.972,-0.54c0.801,-0.387 1.448,-0.879 1.911,-1.477c0.444,-0.617 0.762,-1.206 0.955,-1.852c0.154,-0.627 0.27,-1.274 0.27,-1.92v-9.436c0,-1.187 -0.116,-2.19 -0.261,-2.933c-0.173,-0.772 -0.424,-1.254 -0.771,-1.486c-0.386,-0.28 -0.898,-0.492 -1.544,-0.618c-0.656,-0.193 -1.148,-0.251 -1.505,-0.289v-1.158h9.388zM107.2275,148.8381c-0.26,0.009 -0.607,0.077 -1.032,0.164c-0.444,0.058 -0.791,0.164 -1.091,0.27c-0.308,0.202 -0.53,0.434 -0.656,0.695c-0.134,0.308 -0.221,0.646 -0.221,1.041v1.786c0,1.302 0.009,2.18 0.009,2.634c0.029,0.462 0.068,0.81 0.078,1.128c-1.429,0.637 -2.876,1.168 -4.294,1.476c-1.438,0.358 -2.827,0.541 -4.197,0.541c-1.467,0 -2.894,-0.28 -4.255,-0.83c-1.35,-0.56 -2.538,-1.322 -3.551,-2.373c-1.022,-1.013 -1.852,-2.258 -2.46,-3.705c-0.598,-1.515 -0.897,-3.136 -0.897,-4.969c0,-1.756 0.28,-3.367 0.868,-4.853c0.598,-1.486 1.39,-2.789 2.441,-3.908c1.033,-1.08 2.268,-1.91 3.676,-2.537c1.428,-0.598 2.943,-0.888 4.564,-0.888c1.302,0 2.431,0.164 3.386,0.463c0.956,0.328 1.814,0.695 2.547,1.148l0.666,-1.119h1.303l0.125,8.037h-1.321c-0.213,-0.887 -0.512,-1.766 -0.85,-2.624c-0.308,-0.849 -0.743,-1.602 -1.302,-2.287c-0.521,-0.675 -1.168,-1.225 -1.93,-1.65c-0.772,-0.405 -1.659,-0.608 -2.721,-0.608c-1.167,0 -2.17,0.251 -3.097,0.734c-0.936,0.463 -1.698,1.167 -2.373,2.074c-0.656,0.897 -1.177,2.036 -1.525,3.377c-0.366,1.36 -0.549,2.837 -0.549,4.486c0,1.448 0.164,2.827 0.549,4.13c0.348,1.293 0.859,2.412 1.525,3.377c0.675,0.926 1.514,1.708 2.499,2.229c1.013,0.597 2.151,0.829 3.435,0.829c0.935,0 1.804,-0.125 2.605,-0.434c0.791,-0.28 1.341,-0.579 1.669,-0.897c0.077,-0.598 0.125,-1.139 0.135,-1.727v-2.711c0,-0.454 -0.058,-0.859 -0.174,-1.197c-0.145,-0.376 -0.376,-0.636 -0.781,-0.791c-0.348,-0.154 -0.84,-0.289 -1.448,-0.347c-0.627,-0.106 -1.08,-0.164 -1.427,-0.164v-1.177h10.072zM101.2455,127.9971c-0.308,1.737 -0.858,3.04 -1.698,3.908c-0.849,0.868 -2.026,1.302 -3.454,1.302c-1.447,0 -2.585,-0.434 -3.454,-1.302c-0.868,-0.878 -1.447,-2.171 -1.708,-3.908l0.878,-0.222c0.328,0.975 0.811,1.747 1.467,2.229c0.646,0.55 1.573,0.82 2.817,0.82c1.197,0 2.171,-0.27 2.827,-0.82c0.646,-0.482 1.1,-1.254 1.409,-2.229zM140.6975,136.1601c-0.299,0.019 -0.733,0.087 -1.331,0.203c-0.57,0.106 -1.052,0.308 -1.409,0.54c-0.386,0.212 -0.627,0.752 -0.772,1.515c-0.145,0.8 -0.212,1.736 -0.212,2.855v10.006c0,1.264 -0.27,2.373 -0.801,3.329c-0.521,0.964 -1.206,1.707 -2.074,2.306c-0.869,0.607 -1.747,1.031 -2.721,1.263c-0.926,0.241 -1.833,0.396 -2.702,0.396c-1.37,0 -2.605,-0.183 -3.695,-0.56c-1.081,-0.347 -1.988,-0.849 -2.731,-1.457c-0.723,-0.617 -1.263,-1.322 -1.62,-2.112c-0.377,-0.821 -0.55,-1.641 -0.55,-2.49v-13.594c0,-0.377 -0.077,-0.705 -0.213,-0.965c-0.106,-0.26 -0.357,-0.492 -0.743,-0.714c-0.251,-0.145 -0.607,-0.232 -1.032,-0.367c-0.414,-0.067 -0.752,-0.116 -1.052,-0.154v-1.158h9.581v1.158c-0.289,0.019 -0.685,0.077 -1.129,0.145c-0.463,0.087 -0.781,0.164 -1.013,0.231c-0.366,0.145 -0.588,0.367 -0.743,0.656c-0.106,0.319 -0.183,0.618 -0.183,1.013v12.678c0,0.608 0.077,1.245 0.203,1.92c0.144,0.695 0.395,1.303 0.791,1.901c0.434,0.598 1.013,1.08 1.736,1.467c0.715,0.375 1.727,0.54 2.991,0.54c1.178,0 2.191,-0.165 2.962,-0.54c0.82,-0.387 1.438,-0.879 1.921,-1.477c0.434,-0.617 0.771,-1.206 0.916,-1.852c0.203,-0.627 0.319,-1.274 0.319,-1.92v-9.436c0,-1.187 -0.116,-2.19 -0.271,-2.933c-0.164,-0.772 -0.424,-1.254 -0.771,-1.486c-0.377,-0.28 -0.898,-0.492 -1.554,-0.618c-0.647,-0.193 -1.139,-0.251 -1.486,-0.289v-1.158h9.388zM173.3565,157.9941h-6.203c-1.361,-2.132 -2.606,-3.985 -3.725,-5.557c-1.109,-1.583 -2.315,-3.165 -3.618,-4.863h-2.315v7.332c0,0.358 0.048,0.666 0.154,0.975c0.135,0.299 0.386,0.502 0.772,0.656c0.212,0.096 0.521,0.126 1.022,0.212c0.492,0.068 0.917,0.125 1.226,0.125v1.12h-9.716v-1.12c0.261,-0.009 0.618,-0.067 1.129,-0.125c0.483,-0.067 0.839,-0.106 1.013,-0.212c0.328,-0.145 0.579,-0.328 0.724,-0.608c0.135,-0.289 0.222,-0.618 0.222,-1.023v-16.662c0,-0.367 -0.077,-0.695 -0.184,-0.994c-0.125,-0.308 -0.357,-0.521 -0.762,-0.666c-0.251,-0.106 -0.598,-0.183 -1.032,-0.279c-0.444,-0.058 -0.811,-0.107 -1.11,-0.145v-1.158h10.594c0.994,0 1.901,0.116 2.75,0.319c0.858,0.192 1.64,0.492 2.334,0.945c0.657,0.425 1.206,1.013 1.593,1.717c0.405,0.666 0.607,1.525 0.607,2.519c0,0.877 -0.135,1.65 -0.415,2.325c-0.26,0.694 -0.665,1.273 -1.215,1.785c-0.463,0.472 -1.042,0.859 -1.747,1.187c-0.656,0.356 -1.418,0.656 -2.248,0.868c1.149,1.524 2.084,2.788 2.837,3.811c0.762,1.013 1.679,2.267 2.779,3.753c0.453,0.646 0.888,1.12 1.283,1.409c0.357,0.328 0.762,0.578 1.138,0.781c0.28,0.135 0.628,0.232 1.061,0.29c0.425,0.106 0.753,0.163 1.052,0.163zM164.8085,140.8591c0,-1.351 -0.386,-2.461 -1.187,-3.31c-0.791,-0.81 -1.929,-1.196 -3.386,-1.196h-2.74v9.86h2.093c1.505,0 2.74,-0.492 3.754,-1.457c0.984,-0.926 1.466,-2.228 1.466,-3.897zM201.1155,151.1721l-0.502,6.832h-17.994v-1.13c0.289,-0.009 0.636,-0.067 1.157,-0.125c0.483,-0.067 0.811,-0.106 1.004,-0.212c0.338,-0.145 0.559,-0.328 0.733,-0.608c0.126,-0.289 0.222,-0.618 0.222,-1.023v-16.488c0,-0.377 -0.087,-0.666 -0.183,-0.965c-0.145,-0.309 -0.386,-0.531 -0.772,-0.695c-0.231,-0.116 -0.579,-0.27 -1.032,-0.366c-0.464,-0.145 -0.801,-0.203 -1.129,-0.232v-1.158h9.725v1.158c-0.28,0.019 -0.694,0.087 -1.148,0.145c-0.492,0.144 -0.849,0.192 -1.081,0.289c-0.357,0.106 -0.607,0.328 -0.752,0.656c-0.125,0.299 -0.193,0.656 -0.193,0.994v15.447c0,0.723 0.048,1.264 0.106,1.66c0.048,0.424 0.232,0.694 0.482,0.916c0.242,0.193 0.628,0.338 1.11,0.386c0.511,0.048 1.196,0.096 2.074,0.096c0.425,0 0.83,-0.019 1.255,-0.048c0.434,-0.019 0.858,-0.048 1.215,-0.115c0.396,-0.059 0.763,-0.145 1.052,-0.271c0.338,-0.097 0.569,-0.27 0.695,-0.425c0.453,-0.52 0.984,-1.244 1.582,-2.276c0.569,-0.994 0.984,-1.814 1.216,-2.442zM232.5105,157.9941h-9.562v-1.12c0.85,-0.057 1.554,-0.192 2.113,-0.337c0.541,-0.154 0.83,-0.347 0.83,-0.598c0,-0.116 -0.01,-0.213 -0.029,-0.367c-0.048,-0.144 -0.067,-0.241 -0.096,-0.376l-1.911,-5.143h-8.075c-0.28,0.743 -0.531,1.39 -0.714,1.988c-0.213,0.54 -0.386,1.071 -0.55,1.563c-0.116,0.444 -0.222,0.83 -0.289,1.109c-0.03,0.3 -0.058,0.541 -0.058,0.715c0,0.434 0.328,0.79 1.003,1.013c0.656,0.212 1.438,0.376 2.296,0.433v1.12h-8.645v-1.12c0.27,-0.009 0.618,-0.096 1.043,-0.221c0.434,-0.087 0.771,-0.212 1.051,-0.415c0.434,-0.251 0.762,-0.579 0.984,-0.887c0.241,-0.319 0.454,-0.763 0.714,-1.303c1.158,-2.895 2.451,-6.156 3.821,-9.764c1.389,-3.58 2.634,-6.783 3.714,-9.571h1.303l7.69,19.798c0.134,0.415 0.337,0.781 0.53,1.061c0.203,0.212 0.492,0.473 0.869,0.743c0.251,0.126 0.588,0.29 0.974,0.367c0.367,0.115 0.733,0.192 0.994,0.192zM223.2675,148.6251l-3.483,-8.915l-3.435,8.915zM282.0345,147.3231c0.676,0.434 1.245,1.023 1.689,1.746c0.434,0.743 0.666,1.65 0.666,2.682c0,1.071 -0.232,2.007 -0.705,2.779c-0.443,0.821 -1.071,1.467 -1.795,1.949c-0.733,0.512 -1.553,0.868 -2.47,1.138c-0.916,0.271 -1.842,0.387 -2.826,0.387h-10.893v-1.13c0.27,-0.009 0.627,-0.077 1.139,-0.163c0.501,-0.058 0.839,-0.135 1.071,-0.251c0.328,-0.145 0.569,-0.348 0.703,-0.598c0.145,-0.261 0.203,-0.579 0.203,-0.956v-16.546c0,-0.377 -0.039,-0.705 -0.164,-0.994c-0.135,-0.251 -0.386,-0.473 -0.742,-0.685c-0.319,-0.155 -0.696,-0.261 -1.081,-0.376c-0.425,-0.058 -0.743,-0.116 -1.004,-0.145v-1.158h10.604c0.829,0 1.601,0.096 2.344,0.26c0.772,0.136 1.476,0.445 2.162,0.859c0.656,0.357 1.177,0.888 1.572,1.534c0.396,0.647 0.608,1.428 0.608,2.355c0,0.81 -0.125,1.543 -0.434,2.17c-0.29,0.618 -0.695,1.177 -1.226,1.65c-0.511,0.434 -1.061,0.782 -1.708,1.1c-0.636,0.261 -1.331,0.492 -2.083,0.656v0.164c0.665,0.049 1.408,0.251 2.2,0.482c0.82,0.232 1.533,0.638 2.17,1.091zM278.1275,143.8401c0.405,-0.483 0.666,-0.984 0.839,-1.515c0.155,-0.598 0.232,-1.244 0.232,-1.968c0,-1.283 -0.348,-2.296 -1.033,-3.02c-0.694,-0.695 -1.775,-1.071 -3.28,-1.071c-0.328,0 -0.762,0.01 -1.322,0.019c-0.492,0.02 -0.926,0.029 -1.302,0.068v8.828h2.074c0.878,0 1.631,-0.097 2.267,-0.328c0.647,-0.231 1.148,-0.569 1.525,-1.013zM280.3945,151.1721c0,-1.36 -0.453,-2.489 -1.389,-3.367c-0.907,-0.878 -2.21,-1.322 -3.917,-1.322c-0.685,0 -1.264,0.01 -1.737,0.039c-0.482,0.019 -0.83,0.039 -1.09,0.048v8.115c0,0.666 0.308,1.177 0.839,1.533c0.569,0.338 1.322,0.493 2.325,0.493c1.602,0 2.818,-0.473 3.686,-1.37c0.849,-0.956 1.283,-2.364 1.283,-4.169zM305.8855,157.9941h-10.333v-1.12c0.279,-0.009 0.714,-0.057 1.235,-0.105c0.569,-0.068 0.964,-0.116 1.196,-0.193c0.328,-0.135 0.618,-0.358 0.743,-0.569c0.183,-0.232 0.251,-0.609 0.251,-1.033v-16.653c0,-0.376 -0.068,-0.704 -0.155,-0.974c-0.125,-0.232 -0.386,-0.444 -0.839,-0.627c-0.348,-0.106 -0.753,-0.251 -1.245,-0.348c-0.472,-0.125 -0.887,-0.174 -1.186,-0.212v-1.158h10.333v1.158c-0.319,0.019 -0.714,0.077 -1.177,0.116c-0.463,0.087 -0.869,0.193 -1.235,0.28c-0.425,0.125 -0.666,0.347 -0.849,0.617c-0.097,0.309 -0.193,0.618 -0.193,0.994v16.633c0,0.348 0.106,0.676 0.241,0.975c0.145,0.232 0.415,0.453 0.801,0.646c0.212,0.058 0.617,0.184 1.09,0.251c0.56,0.125 0.984,0.202 1.322,0.202zM302.8175,129.8401c0,0.608 -0.213,1.148 -0.637,1.621c-0.405,0.444 -0.878,0.666 -1.505,0.666c-0.521,0 -1.004,-0.222 -1.409,-0.656c-0.396,-0.425 -0.608,-0.907 -0.608,-1.496c0,-0.588 0.212,-1.109 0.608,-1.544c0.405,-0.434 0.888,-0.636 1.409,-0.636c0.627,0 1.129,0.202 1.515,0.627c0.414,0.396 0.627,0.878 0.627,1.418zM339.5575,157.9941h-6.165c-1.37,-2.132 -2.605,-3.985 -3.705,-5.557c-1.109,-1.583 -2.335,-3.165 -3.637,-4.863h-2.364v7.332c0,0.358 0.106,0.666 0.193,0.975c0.135,0.299 0.395,0.502 0.781,0.656c0.193,0.096 0.521,0.126 0.994,0.212c0.502,0.068 0.926,0.125 1.264,0.125v1.12h-9.764v-1.12c0.28,-0.009 0.647,-0.067 1.148,-0.125c0.502,-0.067 0.82,-0.106 1.013,-0.212c0.357,-0.145 0.589,-0.328 0.705,-0.608c0.164,-0.289 0.221,-0.618 0.221,-1.023v-16.662c0,-0.367 -0.057,-0.695 -0.134,-0.994c-0.136,-0.308 -0.358,-0.521 -0.792,-0.666c-0.222,-0.106 -0.627,-0.183 -1.052,-0.279c-0.424,-0.058 -0.771,-0.107 -1.109,-0.145v-1.158h10.633c0.993,0 1.91,0.116 2.768,0.319c0.84,0.192 1.583,0.492 2.277,0.945c0.695,0.425 1.245,1.013 1.641,1.717c0.386,0.666 0.588,1.525 0.588,2.519c0,0.877 -0.115,1.65 -0.396,2.325c-0.289,0.694 -0.675,1.273 -1.235,1.785c-0.453,0.472 -1.061,0.859 -1.736,1.187c-0.656,0.356 -1.428,0.656 -2.239,0.868c1.149,1.524 2.046,2.788 2.847,3.811c0.714,1.013 1.64,2.267 2.74,3.753c0.483,0.646 0.917,1.12 1.273,1.409c0.367,0.328 0.782,0.578 1.158,0.781c0.299,0.135 0.647,0.232 1.061,0.29c0.415,0.106 0.753,0.163 1.023,0.163zM331.0385,140.8591c0,-1.351 -0.396,-2.461 -1.168,-3.31c-0.8,-0.81 -1.929,-1.196 -3.386,-1.196h-2.798v9.86h2.142c1.524,0 2.75,-0.492 3.714,-1.457c1.033,-0.926 1.496,-2.228 1.496,-3.897zM367.3155,151.1721l-0.453,6.832h-18.014v-1.13c0.261,-0.009 0.647,-0.067 1.129,-0.125c0.521,-0.067 0.84,-0.106 1.033,-0.212c0.347,-0.145 0.579,-0.328 0.704,-0.608c0.164,-0.289 0.212,-0.618 0.212,-1.023v-16.488c0,-0.377 -0.048,-0.666 -0.154,-0.965c-0.126,-0.309 -0.367,-0.531 -0.762,-0.695c-0.212,-0.116 -0.599,-0.27 -1.052,-0.366c-0.444,-0.145 -0.791,-0.203 -1.11,-0.232v-1.158h9.745v1.158c-0.308,0.019 -0.694,0.087 -1.187,0.145c-0.501,0.144 -0.82,0.192 -1.041,0.289c-0.358,0.106 -0.608,0.328 -0.782,0.656c-0.106,0.299 -0.203,0.656 -0.203,0.994v15.447c0,0.723 0.039,1.264 0.126,1.66c0.068,0.424 0.251,0.694 0.501,0.916c0.223,0.193 0.618,0.338 1.081,0.386c0.492,0.048 1.206,0.096 2.104,0.096c0.385,0 0.791,-0.019 1.215,-0.048c0.435,-0.019 0.84,-0.048 1.245,-0.115c0.386,-0.059 0.714,-0.145 1.061,-0.271c0.28,-0.097 0.559,-0.27 0.685,-0.425c0.444,-0.52 0.975,-1.244 1.544,-2.276c0.617,-0.994 1.032,-1.814 1.254,-2.442zM387.3355,157.9941h-10.333v-1.12c0.28,-0.009 0.714,-0.057 1.264,-0.105c0.531,-0.068 0.936,-0.116 1.177,-0.193c0.338,-0.135 0.618,-0.358 0.772,-0.569c0.125,-0.232 0.232,-0.609 0.232,-1.033v-16.653c0,-0.376 -0.087,-0.704 -0.174,-0.974c-0.135,-0.232 -0.386,-0.444 -0.83,-0.627c-0.347,-0.106 -0.743,-0.251 -1.264,-0.348c-0.463,-0.125 -0.888,-0.174 -1.177,-0.212v-1.158h10.333v1.158c-0.299,0.019 -0.723,0.077 -1.176,0.116c-0.454,0.087 -0.869,0.193 -1.235,0.28c-0.415,0.125 -0.695,0.347 -0.801,0.617c-0.136,0.309 -0.222,0.618 -0.222,0.994v16.633c0,0.348 0.086,0.676 0.241,0.975c0.125,0.232 0.434,0.453 0.782,0.646c0.231,0.058 0.607,0.184 1.109,0.251c0.54,0.125 0.965,0.202 1.302,0.202zM384.2385,129.8401c0,0.608 -0.202,1.148 -0.608,1.621c-0.376,0.444 -0.907,0.666 -1.476,0.666c-0.54,0 -1.022,-0.222 -1.418,-0.656c-0.415,-0.425 -0.637,-0.907 -0.637,-1.496c0,-0.588 0.222,-1.109 0.637,-1.544c0.396,-0.434 0.878,-0.636 1.418,-0.636c0.599,0 1.129,0.202 1.505,0.627c0.386,0.396 0.579,0.878 0.579,1.418zM420.9315,157.9941h-6.426c-1.235,-1.901 -2.634,-3.821 -4.149,-5.692c-1.534,-1.93 -3.116,-3.754 -4.786,-5.538h-0.395v7.988c0,0.386 0.067,0.685 0.183,0.974c0.145,0.281 0.377,0.492 0.763,0.695c0.164,0.048 0.463,0.155 0.945,0.242c0.454,0.134 0.849,0.211 1.197,0.211v1.12h-9.552v-1.12c0.26,-0.009 0.608,-0.057 1.08,-0.105c0.483,-0.068 0.82,-0.116 0.994,-0.203c0.347,-0.125 0.579,-0.348 0.724,-0.618c0.115,-0.279 0.212,-0.597 0.212,-1.022v-16.566c0,-0.377 -0.097,-0.695 -0.183,-0.975c-0.145,-0.27 -0.376,-0.482 -0.753,-0.665c-0.279,-0.126 -0.646,-0.251 -1.013,-0.357c-0.415,-0.116 -0.781,-0.165 -1.061,-0.203v-1.158h9.552v1.158c-0.328,0.019 -0.685,0.077 -1.139,0.135c-0.483,0.097 -0.781,0.174 -1.003,0.241c-0.406,0.145 -0.618,0.367 -0.782,0.656c-0.097,0.319 -0.164,0.618 -0.164,1.013v7.931h0.328c0.965,-0.82 1.93,-1.679 2.846,-2.566c0.956,-0.898 1.814,-1.785 2.576,-2.692c0.869,-0.955 1.477,-1.766 1.882,-2.335c0.366,-0.569 0.55,-1.119 0.55,-1.582c0,-0.155 -0.058,-0.28 -0.261,-0.386c-0.212,-0.106 -0.434,-0.183 -0.694,-0.27c-0.309,-0.058 -0.589,-0.068 -0.821,-0.097c-0.221,-0.01 -0.433,-0.029 -0.597,-0.048v-1.158h8.625v1.158c0,0 -0.087,0.009 -0.212,0.019c-0.087,0.019 -0.222,0.029 -0.367,0.058c-0.135,0 -0.289,0.01 -0.463,0.029c-0.126,0.029 -0.309,0.087 -0.55,0.126c-0.376,0.077 -0.791,0.231 -1.206,0.414c-0.396,0.184 -0.704,0.425 -0.965,0.714c-1.119,1.264 -2.296,2.557 -3.483,3.927c-1.215,1.331 -2.402,2.566 -3.608,3.705c1.669,1.843 3.029,3.435 4.1,4.776c1.081,1.322 2.2,2.769 3.425,4.293c0.483,0.579 0.936,1.043 1.38,1.38c0.444,0.386 0.868,0.617 1.206,0.82c0.28,0.135 0.608,0.232 1.023,0.29c0.415,0.106 0.801,0.163 1.042,0.163zM452.1245,146.6671c0,1.958 -0.386,3.637 -1.1,5.065c-0.772,1.447 -1.698,2.605 -2.895,3.541c-1.167,0.936 -2.499,1.601 -3.985,2.046c-1.505,0.453 -3.039,0.675 -4.583,0.675h-9.532v-1.12c0.289,0 0.694,-0.019 1.206,-0.096c0.531,-0.077 0.83,-0.125 0.984,-0.202c0.357,-0.135 0.589,-0.358 0.714,-0.628c0.135,-0.279 0.241,-0.597 0.241,-1.022v-16.566c0,-0.377 -0.106,-0.705 -0.193,-1.013c-0.125,-0.271 -0.366,-0.502 -0.762,-0.666c-0.308,-0.193 -0.666,-0.289 -1.09,-0.386c-0.376,-0.048 -0.685,-0.097 -0.965,-0.135v-1.158h10.044c1.351,0 2.74,0.212 4.081,0.637c1.351,0.425 2.47,1.042 3.502,1.727c1.342,0.974 2.413,2.229 3.185,3.792c0.762,1.563 1.148,3.367 1.148,5.509zM448.1295,146.6571c0,-1.553 -0.183,-2.972 -0.598,-4.197c-0.405,-1.235 -1.003,-2.315 -1.824,-3.27c-0.714,-0.879 -1.64,-1.583 -2.72,-2.075c-1.09,-0.511 -2.316,-0.762 -3.619,-0.762c-0.443,0 -0.955,0 -1.524,0.019c-0.54,0.02 -0.955,0.02 -1.245,0.039v17.646c0,1.004 0.319,1.689 0.859,2.055c0.608,0.367 1.477,0.56 2.663,0.56c1.389,0 2.547,-0.231 3.589,-0.704c1.042,-0.502 1.882,-1.177 2.509,-2.046c0.656,-0.907 1.167,-1.948 1.428,-3.126c0.347,-1.206 0.482,-2.605 0.482,-4.139zM515.4065,136.1601c-0.144,0.019 -0.472,0.087 -0.868,0.222c-0.386,0.125 -0.695,0.289 -0.868,0.405c-0.425,0.251 -0.695,0.453 -0.83,0.579c-0.135,0.174 -0.473,0.521 -0.897,1.1c-0.83,1.206 -1.583,2.402 -2.316,3.647c-0.733,1.206 -1.631,2.76 -2.701,4.631c-0.376,0.695 -0.666,1.235 -0.763,1.66c-0.135,0.434 -0.202,1.07 -0.202,1.852v4.39c0,0.376 0.067,0.705 0.251,0.994c0.154,0.308 0.424,0.54 0.791,0.714c0.231,0.087 0.627,0.183 1.196,0.299c0.608,0.135 1.071,0.221 1.428,0.221v1.13h-10.777v-1.13c0.318,-0.009 0.772,-0.077 1.361,-0.163c0.607,-0.039 1.042,-0.106 1.254,-0.222c0.424,-0.135 0.656,-0.367 0.839,-0.656c0.126,-0.261 0.212,-0.627 0.212,-1.033v-5.576c0,-0.174 -0.125,-0.502 -0.309,-0.975c-0.221,-0.463 -0.492,-0.926 -0.752,-1.524c-0.647,-1.254 -1.38,-2.615 -2.171,-4.062c-0.81,-1.438 -1.495,-2.721 -2.055,-3.753c-0.347,-0.608 -0.665,-1.091 -0.974,-1.37c-0.251,-0.328 -0.56,-0.618 -0.907,-0.859c-0.261,-0.155 -0.608,-0.251 -0.956,-0.376c-0.347,-0.058 -0.694,-0.107 -0.964,-0.145v-1.158h9.773v1.158c-1.08,0.038 -1.852,0.087 -2.296,0.232c-0.482,0.115 -0.694,0.289 -0.694,0.54c0,0.077 0.038,0.183 0.115,0.357c0.058,0.154 0.145,0.357 0.261,0.607c0.154,0.29 0.318,0.599 0.482,0.956c0.184,0.376 0.386,0.704 0.579,1.071c0.482,0.926 1.023,1.901 1.544,2.836c0.53,0.975 1.216,2.2 2.074,3.734c1.679,-2.701 2.962,-4.833 3.878,-6.348c0.898,-1.544 1.342,-2.47 1.342,-2.779c0,-0.251 -0.116,-0.454 -0.299,-0.579c-0.164,-0.154 -0.425,-0.29 -0.695,-0.338c-0.338,-0.106 -0.656,-0.183 -1.071,-0.202c-0.318,0 -0.656,-0.039 -0.974,-0.087v-1.158h7.959zM534.5975,157.9941h-10.343v-1.12c0.261,-0.009 0.666,-0.057 1.254,-0.105c0.521,-0.068 0.917,-0.116 1.139,-0.193c0.385,-0.135 0.646,-0.358 0.791,-0.569c0.164,-0.232 0.251,-0.609 0.251,-1.033v-16.653c0,-0.376 -0.048,-0.704 -0.184,-0.974c-0.115,-0.232 -0.424,-0.444 -0.858,-0.627c-0.299,-0.106 -0.705,-0.251 -1.206,-0.348c-0.521,-0.125 -0.917,-0.174 -1.187,-0.212v-1.158h10.343v1.158c-0.357,0.019 -0.762,0.077 -1.226,0.116c-0.433,0.087 -0.868,0.193 -1.196,0.28c-0.405,0.125 -0.704,0.347 -0.82,0.617c-0.154,0.309 -0.212,0.618 -0.212,0.994v16.633c0,0.348 0.058,0.676 0.241,0.975c0.164,0.232 0.424,0.453 0.791,0.646c0.241,0.058 0.569,0.184 1.119,0.251c0.512,0.125 0.946,0.202 1.303,0.202zM531.4715,129.8401c0,0.608 -0.183,1.148 -0.579,1.621c-0.405,0.444 -0.907,0.666 -1.495,0.666c-0.579,0 -1.033,-0.222 -1.458,-0.656c-0.424,-0.425 -0.607,-0.907 -0.607,-1.496c0,-0.588 0.183,-1.109 0.607,-1.544c0.425,-0.434 0.879,-0.636 1.458,-0.636c0.607,0 1.119,0.202 1.504,0.627c0.396,0.396 0.57,0.878 0.57,1.418zM568.1925,157.9941h-6.455c-1.235,-1.901 -2.614,-3.821 -4.129,-5.692c-1.524,-1.93 -3.136,-3.754 -4.776,-5.538h-0.415v7.988c0,0.386 0.058,0.685 0.193,0.974c0.126,0.281 0.357,0.492 0.733,0.695c0.184,0.048 0.473,0.155 0.975,0.242c0.473,0.134 0.849,0.211 1.177,0.211v1.12h-9.532v-1.12c0.212,-0.009 0.588,-0.057 1.08,-0.105c0.444,-0.068 0.801,-0.116 0.984,-0.203c0.319,-0.125 0.54,-0.348 0.714,-0.618c0.135,-0.279 0.212,-0.597 0.212,-1.022v-16.566c0,-0.377 -0.067,-0.695 -0.173,-0.975c-0.155,-0.27 -0.386,-0.482 -0.753,-0.665c-0.309,-0.126 -0.627,-0.251 -1.023,-0.357c-0.395,-0.116 -0.781,-0.165 -1.041,-0.203v-1.158h9.532v1.158c-0.318,0.019 -0.676,0.077 -1.138,0.135c-0.454,0.097 -0.801,0.174 -1.014,0.241c-0.385,0.145 -0.636,0.367 -0.733,0.656c-0.135,0.319 -0.193,0.618 -0.193,1.013v7.931h0.29c1.013,-0.82 1.939,-1.679 2.865,-2.566c0.965,-0.898 1.814,-1.785 2.567,-2.692c0.849,-0.955 1.495,-1.766 1.9,-2.335c0.386,-0.569 0.579,-1.119 0.579,-1.582c0,-0.155 -0.116,-0.28 -0.318,-0.386c-0.203,-0.106 -0.434,-0.183 -0.666,-0.27c-0.299,-0.058 -0.598,-0.068 -0.839,-0.097c-0.232,-0.01 -0.435,-0.029 -0.55,-0.048v-1.158h8.596v1.158c-0.028,0 -0.077,0.009 -0.202,0.019c-0.087,0.019 -0.241,0.029 -0.348,0.058c-0.144,0 -0.338,0.01 -0.463,0.029c-0.144,0.029 -0.347,0.087 -0.578,0.126c-0.406,0.077 -0.792,0.231 -1.207,0.414c-0.366,0.184 -0.714,0.425 -0.965,0.714c-1.118,1.264 -2.296,2.557 -3.473,3.927c-1.245,1.331 -2.402,2.566 -3.628,3.705c1.67,1.843 3.011,3.435 4.091,4.776c1.09,1.322 2.2,2.769 3.455,4.293c0.453,0.579 0.887,1.043 1.34,1.38c0.473,0.386 0.869,0.617 1.245,0.82c0.26,0.135 0.618,0.232 1.052,0.29c0.405,0.106 0.723,0.163 1.032,0.163zM580.3975,156.1511c0,0.598 -0.212,1.138 -0.646,1.544c-0.444,0.434 -0.994,0.646 -1.573,0.646c-0.598,0 -1.158,-0.212 -1.592,-0.646c-0.424,-0.406 -0.656,-0.946 -0.656,-1.544c0,-0.589 0.232,-1.138 0.656,-1.573c0.434,-0.434 0.994,-0.656 1.592,-0.656c0.579,0 1.129,0.222 1.573,0.656c0.434,0.435 0.646,0.984 0.646,1.573zM580.2625,136.6141c0,0.501 -0.212,2.344 -0.55,5.441c-0.347,3.097 -0.666,6.078 -0.965,8.953h-1.254c-0.241,-2.875 -0.511,-5.856 -0.898,-8.953c-0.308,-3.097 -0.482,-4.94 -0.482,-5.441c0,-0.618 0.193,-1.139 0.589,-1.563c0.357,-0.425 0.878,-0.637 1.476,-0.637c0.579,0 1.1,0.212 1.476,0.627c0.386,0.405 0.608,0.936 0.608,1.573zM481.4065,155.1961c-2.094,2.209 -4.728,3.319 -7.96,3.319c-3.223,0 -5.847,-1.11 -7.882,-3.338c-2.104,-2.21 -3.126,-4.902 -3.126,-8.076c0,-0.212 0.038,-0.54 0.086,-0.955h17.985c-0.058,-1.486 -0.183,-2.876 -0.531,-4.091c-0.347,-1.341 -0.868,-2.48 -1.534,-3.377c-0.637,-0.907 -1.467,-1.611 -2.374,-2.074c-0.868,-0.483 -1.948,-0.734 -3.077,-0.734c-1.062,0 -1.959,0.203 -2.76,0.608c-0.733,0.425 -1.37,0.975 -1.939,1.65c-0.501,0.685 -0.936,1.438 -1.293,2.287c-0.309,0.858 -0.598,1.737 -0.82,2.624h-1.351l0.155,-8.037h1.302l0.666,1.1c0.743,-0.434 1.563,-0.801 2.557,-1.139c0.926,-0.289 2.055,-0.453 3.357,-0.453c1.65,0 3.165,0.29 4.593,0.888c1.418,0.627 2.643,1.457 3.647,2.537c1.052,1.119 1.91,2.422 2.479,3.908c0.541,1.486 0.859,3.097 0.859,4.853c0,3.396 -0.993,6.329 -3.039,8.5zM480.7215,147.3331h-14.54c0,2.412 0.579,4.592 1.814,6.541c1.37,2.267 3.213,3.415 5.451,3.415c2.287,0 4.13,-1.148 5.49,-3.415c1.196,-1.939 1.785,-4.12 1.785,-6.541z" fill="#231f20" fill-opacity="1"></path></g></g></svg>