<svg id="Layer_1" data-name="Layer 1" xmlns="http://www.w3.org/2000/svg" viewBox="0 0 500 500"><defs><style>.cls-1{fill:#7a0b3c;}.cls-2{fill:#b11c44;}.cls-3{fill:#ca2b36;fill-rule:evenodd;}</style></defs><title>logo son versiya gradientsiz</title><path class="cls-1" d="M322.61,280.77h3.16a7.62,7.62,0,0,1,1.49.14,3.34,3.34,0,0,1,1.15.46,2.13,2.13,0,0,1,.75.8,2.47,2.47,0,0,1,.27,1.2,2.37,2.37,0,0,1-.46,1.43,2.31,2.31,0,0,1-1.39.89v.06a3.18,3.18,0,0,1,1.81.81,2.32,2.32,0,0,1,.66,1.74,3.1,3.1,0,0,1-.29,1.37,2.77,2.77,0,0,1-.83,1,3.83,3.83,0,0,1-1.29.59,6.48,6.48,0,0,1-1.64.19h-3.39Zm2.92,4.54a3.2,3.2,0,0,0,2-.47,1.63,1.63,0,0,0,.59-1.36,1.36,1.36,0,0,0-.63-1.26,3.71,3.71,0,0,0-1.87-.38H324v3.47Zm.28,5a3.83,3.83,0,0,0,2.14-.51,1.79,1.79,0,0,0,.76-1.6,1.59,1.59,0,0,0-.74-1.46,4.23,4.23,0,0,0-2.16-.46H324v4Z"/><path class="cls-1" d="M335.26,279.83a1,1,0,0,1-.66-.25.86.86,0,0,1,0-1.25,1,1,0,0,1,1.32,0,.86.86,0,0,1,0,1.25,1,1,0,0,1-.66.25m-.67.94h1.35v10.65h-1.35Z"/><path class="cls-1" d="M347.15,291.42l-2.57-4.5h-1.93v4.5H341.3V280.77h3.33a7.06,7.06,0,0,1,1.5.15,3.14,3.14,0,0,1,1.19.51,2.41,2.41,0,0,1,.77.93,3.23,3.23,0,0,1,.28,1.4,2.94,2.94,0,0,1-.65,2,3.4,3.4,0,0,1-1.74,1l2.7,4.64Zm-4.5-5.6h1.79a3.08,3.08,0,0,0,1.91-.51,1.82,1.82,0,0,0,.67-1.55,1.6,1.6,0,0,0-.67-1.48,3.58,3.58,0,0,0-1.91-.43h-1.79Z"/><path class="cls-1" d="M353.84,279.83a1,1,0,0,1-.66-.25.86.86,0,0,1,0-1.25,1,1,0,0,1,1.32,0,.86.86,0,0,1,0,1.25,1,1,0,0,1-.66.25m-.66.94h1.34v10.65h-1.34Z"/><path class="cls-1" d="M359.88,280.77h1.4l3.85,6.69,1.15,2.21h.07c0-.55-.07-1.11-.11-1.68s-.06-1.15-.06-1.72v-5.5h1.29v10.65h-1.4l-3.87-6.71-1.15-2.19H361c0,.54.09,1.09.13,1.65s.06,1.12.06,1.68v5.57h-1.29Z"/><path class="cls-1" d="M372.21,286.09a6.9,6.9,0,0,1,.36-2.3,5,5,0,0,1,1-1.74,4.29,4.29,0,0,1,1.5-1.1,4.73,4.73,0,0,1,1.89-.38,3.53,3.53,0,0,1,1.7.4,4.65,4.65,0,0,1,1.21.92l-.76.86a3.52,3.52,0,0,0-.94-.72,2.52,2.52,0,0,0-1.19-.27,3.11,3.11,0,0,0-1.38.3,3,3,0,0,0-1.06.86,4,4,0,0,0-.68,1.36,6.13,6.13,0,0,0-.24,1.78,6.31,6.31,0,0,0,.23,1.81,4.42,4.42,0,0,0,.66,1.38,2.78,2.78,0,0,0,1,.87,2.94,2.94,0,0,0,1.37.31,2.81,2.81,0,0,0,1.36-.31,4.12,4.12,0,0,0,1.1-.87l.76.82a4.68,4.68,0,0,1-1.43,1.14,4,4,0,0,1-1.82.41,4.58,4.58,0,0,1-1.86-.38,4.13,4.13,0,0,1-1.48-1.08,4.93,4.93,0,0,1-1-1.73,7.1,7.1,0,0,1-.35-2.34"/><path class="cls-1" d="M385.2,279.83a1,1,0,0,1-.66-.25.86.86,0,0,1,0-1.25,1,1,0,0,1,1.32,0,.86.86,0,0,1,0,1.25,1,1,0,0,1-.66.25m-.66.94h1.34v10.65h-1.34Z"/><path class="cls-1" d="M397,280.77h3.17a7.52,7.52,0,0,1,1.48.14,3.48,3.48,0,0,1,1.16.46,2,2,0,0,1,.74.8,2.47,2.47,0,0,1,.27,1.2,2.43,2.43,0,0,1-.45,1.43,2.36,2.36,0,0,1-1.4.89v.06a3.24,3.24,0,0,1,1.82.81,2.35,2.35,0,0,1,.65,1.74,3.1,3.1,0,0,1-.29,1.37,2.67,2.67,0,0,1-.83,1,3.78,3.78,0,0,1-1.28.59,6.56,6.56,0,0,1-1.65.19H397Zm2.93,4.54a3.19,3.19,0,0,0,2-.47,1.61,1.61,0,0,0,.59-1.36,1.37,1.37,0,0,0-.62-1.26,3.75,3.75,0,0,0-1.88-.38h-1.64v3.47Zm.27,5a3.86,3.86,0,0,0,2.15-.51,1.81,1.81,0,0,0,.76-1.6,1.6,1.6,0,0,0-.75-1.46,4.23,4.23,0,0,0-2.16-.46h-1.85v4Z"/><path class="cls-1" d="M413.82,288.17h-3.88l-1,3.25h-1.37l3.6-10.65h1.53l3.6,10.65h-1.44Zm-.34-1.08-.5-1.63c-.2-.6-.39-1.19-.56-1.78l-.52-1.81h-.06c-.16.62-.33,1.22-.5,1.81s-.37,1.18-.56,1.78l-.5,1.63Z"/><path class="cls-1" d="M420.22,280.77h1.4l3.84,6.69,1.16,2.21h.06c0-.55-.06-1.11-.1-1.68s-.06-1.15-.06-1.72v-5.5h1.28v10.65h-1.39l-3.87-6.71-1.15-2.19h-.07q.07.81.12,1.65t.06,1.68v5.57h-1.28Z"/><polygon class="cls-1" points="433.16 280.77 434.51 280.77 434.51 286.11 434.56 286.11 438.99 280.77 440.52 280.77 437.19 284.83 441.04 291.42 439.53 291.42 436.35 285.88 434.51 288.04 434.51 291.42 433.16 291.42 433.16 280.77"/><polygon class="cls-1" points="58.61 276.34 58.61 276.35 126.57 276.35 126.57 276.34 92.6 242.35 58.61 276.34"/><polygon class="cls-2" points="58.62 208.38 58.61 208.38 58.61 276.34 92.6 242.36 58.62 208.38"/><polygon class="cls-1" points="153.19 242.01 172.1 261.81 172.1 262.25 162.96 262.25 146.52 244.87 146.52 262.25 139.12 262.25 139.12 222.99 146.52 222.99 146.52 239.59 161.44 222.99 170.64 222.99 170.64 223.21 153.19 242.01"/><path class="cls-1" d="M191.74,249.31c0-3.47-2.36-7.2-6.15-7.2s-6.1,3.73-6.1,7.2,2.31,7.26,6.1,7.26,6.15-3.79,6.15-7.26m6.53,12.94H191v-2.37h-.11a8.91,8.91,0,0,1-7,3.22c-7.57,0-11.89-6.9-11.89-13.89s4.37-13.63,11.79-13.63a9.58,9.58,0,0,1,7.21,3.26v-2.42h7.26Z"/><path class="cls-1" d="M223.73,249.31c0-3.47-2.32-7.2-6.11-7.2s-6.1,3.73-6.1,7.2,2.32,7.26,6.1,7.26,6.11-3.79,6.11-7.26m-11.47-10.52a9.49,9.49,0,0,1,7.15-3.21c7.32,0,11.79,6.84,11.79,13.63,0,7-4.32,13.89-11.95,13.89a8.54,8.54,0,0,1-6.89-3.27h-.1V276h-7.37V236.42h7.37Z"/><path class="cls-1" d="M243.66,262.25h-7.37V236.42h7.37Zm.68-36.66a4.37,4.37,0,1,1-4.37-4.37A4.35,4.35,0,0,1,244.34,225.59Z"/><polygon class="cls-1" points="258.81 262.25 251.45 262.25 251.45 242.63 248.92 242.63 248.92 236.42 251.45 236.42 251.45 227.69 258.81 227.69 258.81 236.42 263.34 236.42 263.34 242.63 258.81 242.63 258.81 262.25"/><path class="cls-1" d="M284.17,249.31c0-3.47-2.37-7.2-6.16-7.2s-6.1,3.73-6.1,7.2,2.31,7.26,6.1,7.26,6.16-3.79,6.16-7.26m6.52,12.94h-7.26v-2.37h-.11a8.89,8.89,0,0,1-7,3.22c-7.58,0-11.89-6.9-11.89-13.89s4.37-13.63,11.78-13.63a9.56,9.56,0,0,1,7.21,3.26v-2.42h7.26Z"/><rect class="cls-1" x="297.31" y="217.65" width="7.37" height="44.61"/><path class="cls-1" d="M372.9,249.31c0-3.47-2.37-7.2-6.15-7.2s-6.1,3.73-6.1,7.2,2.31,7.26,6.1,7.26,6.15-3.79,6.15-7.26m6.52,12.94h-7.25v-2.37h-.11a8.92,8.92,0,0,1-7,3.22c-7.58,0-11.89-6.9-11.89-13.89s4.37-13.63,11.79-13.63a9.58,9.58,0,0,1,7.21,3.26v-2.42h7.25Z"/><path class="cls-1" d="M393.42,238.79h.1a7.7,7.7,0,0,1,6.73-3.21c6.95,0,8.95,4.9,8.95,10.89v15.78h-7.37V248.57c0-3.1.16-7.09-4-7.09-4.37,0-4.42,4.89-4.42,8v12.78h-7.37V236.42h7.37Z"/><polygon class="cls-1" points="423.14 245.89 423.24 245.89 430.98 236.42 440.55 236.42 429.66 247.79 441.39 262.25 431.71 262.25 423.24 251.26 423.14 251.26 423.14 262.25 415.77 262.25 415.77 217.64 423.14 217.64 423.14 245.89"/><path class="cls-1" d="M329.35,256.05h4.84c4.15,0,7.74-.53,7.74-5.69s-4.22-5.36-8.11-5.36h-4.47Zm0-17h4.16c3.78,0,5.62-1.1,5.62-5.21s-2.31-5.1-5.57-5.1h-4.21Zm-7.73-16.52h12.83c7.36,0,11.89,2.9,11.89,10.79,0,2.84-1,6.11-3.47,7.69,4.68.83,6.78,5.57,6.78,9.94,0,7.78-5.47,11.25-12.67,11.25H321.62Z"/><polygon id="SVGID" class="cls-3" points="126.57 208.39 126.57 208.38 58.61 208.38 58.61 208.4 92.59 242.38 126.57 208.39"/></svg>